<svg width="809" height="740" viewBox="0 0 809 740" fill="none" xmlns="http://www.w3.org/2000/svg">
<path d="M725.278 49.5782L686.502 72.1007L647.472 49.5782L686.248 27.063L725.278 49.5782Z" fill="#F6E4FF" stroke="white" stroke-miterlimit="10"/>
<path d="M725.278 49.5784L725.147 95.3194L686.371 117.842L686.502 72.1008L725.278 49.5784Z" fill="#4A6EFF" stroke="white" stroke-miterlimit="10"/>
<path d="M686.501 72.1008L686.371 117.842L647.341 95.3194L647.472 49.5784L686.501 72.1008Z" fill="#4A6EFF" stroke="white" stroke-miterlimit="10"/>
<path d="M142.903 380.755L112.305 398.528L81.5107 380.755L112.109 362.99L142.903 380.755Z" fill="#F6E4FF" stroke="white" stroke-miterlimit="10"/>
<path d="M142.903 380.755L142.802 416.852L112.203 434.618L112.305 398.528L142.903 380.755Z" fill="#4A6EFF" stroke="white" stroke-miterlimit="10"/>
<path d="M112.305 398.528L112.203 434.618L81.4092 416.852L81.5108 380.755L112.305 398.528Z" fill="#4A6EFF" stroke="white" stroke-miterlimit="10"/>
<path d="M326.863 277.8L324.604 276.495L1.65906 464.049L3.91815 465.354L37.3104 445.953L36.2162 445.318L38.9341 443.731L40.0284 444.366L73.5265 424.929L72.397 424.294L75.115 422.707L76.2092 423.342L109.707 403.906L108.613 403.271L111.331 401.684L112.425 402.319L145.888 382.882L144.794 382.247L147.512 380.66L148.606 381.295L182.104 361.859L181.01 361.224L183.728 359.636L184.822 360.271L218.285 340.835L217.191 340.2L219.909 338.648L221.003 339.283L254.501 319.812L253.407 319.177L256.125 317.625L257.219 318.26L290.682 298.788L289.588 298.153L292.306 296.601L293.4 297.236L326.863 277.8Z" fill="white"/>
<path d="M73.7384 466.977L71.4793 465.672L38.087 485.072L40.3461 486.378L73.7384 466.977ZM109.919 445.953L107.66 444.648L74.162 464.084L76.4211 465.389L109.919 445.953ZM146.1 424.93L143.841 423.624L110.343 443.061L112.602 444.366L146.1 424.93ZM182.281 403.906L180.022 402.601L146.524 422.037L148.783 423.342L182.281 403.906ZM218.462 382.882L216.203 381.577L182.704 401.013L184.964 402.319L218.462 382.882ZM254.643 361.859L252.383 360.554L218.885 379.99L221.144 381.295L254.643 361.859ZM290.823 340.835L288.564 339.53L255.066 358.966L257.325 360.272L290.823 340.835ZM327.004 319.812L324.745 318.507L291.247 337.943L293.506 339.248L327.004 319.812ZM363.15 298.823L360.891 297.518L327.463 316.955L329.722 318.26L363.15 298.823Z" fill="white"/>
<path d="M110.166 488L107.907 486.695L74.5149 506.096L76.774 507.401L110.166 488ZM146.347 466.976L144.088 465.671L110.59 485.107L112.849 486.413L146.347 466.976ZM182.528 445.953L180.269 444.648L146.771 464.084L149.03 465.389L182.528 445.953ZM218.709 424.929L216.45 423.624L182.951 443.06L185.211 444.365L218.709 424.929ZM254.89 403.906L252.63 402.6L219.132 422.037L221.391 423.342L254.89 403.906ZM291.07 382.882L288.811 381.577L255.313 401.013L257.572 402.318L291.07 382.882ZM327.251 361.859L324.992 360.553L291.494 379.99L293.753 381.295L327.251 361.859ZM363.432 340.835L361.173 339.53L327.675 358.966L329.934 360.271L363.432 340.835ZM399.578 319.847L397.318 318.542L363.891 337.978L366.15 339.283L399.578 319.847Z" fill="white"/>
<path d="M146.63 509.024L144.37 507.718L110.978 527.119L113.237 528.424L146.63 509.024ZM182.81 488L180.551 486.695L147.053 506.131L149.312 507.436L182.81 488ZM218.991 466.976L216.732 465.671L183.234 485.107L185.493 486.413L218.991 466.976ZM255.172 445.953L252.913 444.648L219.415 464.084L221.674 465.389L255.172 445.953ZM291.353 424.929L289.094 423.624L255.596 443.06L257.855 444.366L291.353 424.929ZM327.534 403.906L325.275 402.601L291.776 422.037L294.035 423.342L327.534 403.906ZM363.714 382.882L361.455 381.577L327.957 401.013L330.216 402.318L363.714 382.882ZM399.895 361.859L397.636 360.553L364.138 379.99L366.397 381.295L399.895 361.859ZM436.041 340.87L433.782 339.565L400.354 359.001L402.613 360.307L436.041 340.87Z" fill="white"/>
<path d="M183.057 530.048L180.798 528.743L147.406 548.143L149.665 549.449L183.057 530.048ZM219.238 509.024L216.979 507.719L183.481 527.155L185.74 528.46L219.238 509.024ZM255.419 488.001L253.16 486.695L219.662 506.132L221.921 507.437L255.419 488.001ZM291.6 466.977L289.341 465.672L255.843 485.108L258.102 486.413L291.6 466.977ZM327.781 445.953L325.522 444.648L292.023 464.085L294.283 465.39L327.781 445.953ZM363.961 424.93L361.702 423.625L328.204 443.061L330.463 444.366L363.961 424.93ZM400.142 403.906L397.883 402.601L364.385 422.037L366.644 423.343L400.142 403.906ZM436.323 382.883L434.064 381.578L400.566 401.014L402.825 402.319L436.323 382.883ZM472.469 361.895L470.21 360.589L436.782 380.026L439.041 381.331L472.469 361.895Z" fill="white"/>
<path d="M219.485 551.071L217.226 549.766L183.834 569.167L186.093 570.472L219.485 551.071ZM255.666 530.048L253.407 528.743L219.909 548.179L222.168 549.484L255.666 530.048ZM291.847 509.024L289.588 507.719L256.09 527.155L258.349 528.46L291.847 509.024ZM328.028 488.001L325.769 486.696L292.271 506.132L294.53 507.437L328.028 488.001ZM364.209 466.977L361.95 465.672L328.451 485.108L330.71 486.413L364.209 466.977ZM400.389 445.954L398.13 444.648L364.632 464.085L366.891 465.39L400.389 445.954ZM436.57 424.93L434.311 423.625L400.813 443.061L403.072 444.366L436.57 424.93ZM472.751 403.906L470.492 402.601L436.994 422.038L439.253 423.343L472.751 403.906ZM508.897 382.918L506.638 381.613L473.21 401.049L475.469 402.354L508.897 382.918Z" fill="white"/>
<path d="M255.913 572.095L253.654 570.79L220.262 590.191L222.521 591.496L255.913 572.095ZM292.094 551.071L289.835 549.766L256.337 569.202L258.596 570.507L292.094 551.071ZM328.275 530.048L326.016 528.743L292.518 548.179L294.777 549.484L328.275 530.048ZM364.456 509.024L362.197 507.719L328.698 527.155L330.958 528.46L364.456 509.024ZM400.636 488.001L398.377 486.695L364.879 506.132L367.138 507.437L400.636 488.001ZM436.817 466.977L434.558 465.672L401.06 485.108L403.319 486.413L436.817 466.977ZM472.998 445.953L470.739 444.648L437.241 464.085L439.5 465.39L472.998 445.953ZM509.179 424.93L506.92 423.625L473.422 443.061L475.681 444.366L509.179 424.93ZM545.324 403.942L543.065 402.636L509.638 422.073L511.897 423.378L545.324 403.942Z" fill="white"/>
<path d="M292.341 593.118L290.082 591.813L256.69 611.214L258.949 612.519L292.341 593.118ZM328.522 572.095L326.263 570.79L292.765 590.226L295.024 591.531L328.522 572.095ZM364.703 551.071L362.444 549.766L328.946 569.202L331.205 570.508L364.703 551.071ZM400.884 530.048L398.625 528.743L365.126 548.179L367.386 549.484L400.884 530.048ZM437.064 509.024L434.805 507.719L401.307 527.155L403.566 528.46L437.064 509.024ZM473.245 488.001L470.986 486.696L437.488 506.132L439.747 507.437L473.245 488.001ZM509.426 466.977L507.167 465.672L473.669 485.108L475.928 486.413L509.426 466.977ZM545.607 445.954L543.348 444.648L509.85 464.085L512.109 465.39L545.607 445.954ZM581.753 424.965L579.493 423.66L546.066 443.096L548.325 444.402L581.753 424.965Z" fill="white"/>
<path d="M328.804 614.106L326.545 612.801L293.153 632.202L295.412 633.507L328.804 614.106ZM364.985 593.082L362.726 591.777L329.228 611.213L331.487 612.518L364.985 593.082ZM401.166 572.059L398.907 570.754L365.409 590.19L367.668 591.495L401.166 572.059ZM437.347 551.035L435.088 549.73L401.589 569.166L403.849 570.471L437.347 551.035ZM473.527 530.012L471.268 528.706L437.77 548.143L440.029 549.448L473.527 530.012ZM509.708 508.988L507.449 507.683L473.951 527.119L476.21 528.424L509.708 508.988ZM545.889 487.964L543.63 486.659L510.132 506.096L512.391 507.401L545.889 487.964ZM582.07 466.941L579.811 465.636L546.313 485.072L548.572 486.377L582.07 466.941ZM618.216 445.953L615.956 444.647L582.529 464.084L584.788 465.389L618.216 445.953Z" fill="white"/>
<path d="M365.232 635.129L362.973 633.824L329.581 653.225L331.84 654.53L365.232 635.129ZM401.413 614.106L399.154 612.801L365.656 632.237L367.915 633.542L401.413 614.106ZM437.594 593.082L435.335 591.777L401.837 611.213L404.096 612.519L437.594 593.082ZM473.775 572.059L471.516 570.754L438.017 590.19L440.276 591.495L473.775 572.059ZM509.955 551.035L507.696 549.73L474.198 569.166L476.457 570.471L509.955 551.035ZM546.136 530.012L543.877 528.707L510.379 548.143L512.638 549.448L546.136 530.012ZM582.317 508.988L580.058 507.683L546.56 527.119L548.819 528.424L582.317 508.988ZM618.498 487.965L616.239 486.659L582.741 506.096L585 507.401L618.498 487.965ZM654.643 466.976L652.384 465.671L618.957 485.107L621.216 486.412L654.643 466.976Z" fill="white"/>
<path d="M401.66 656.154L399.401 654.848L366.009 674.249L368.268 675.555L401.66 656.154ZM437.841 635.13L435.582 633.825L402.084 653.261L404.343 654.566L437.841 635.13ZM474.022 614.107L471.763 612.801L438.265 632.238L440.524 633.543L474.022 614.107ZM510.203 593.083L507.944 591.778L474.445 611.214L476.704 612.519L510.203 593.083ZM546.383 572.059L544.124 570.754L510.626 590.19L512.885 591.496L546.383 572.059ZM582.564 551.036L580.305 549.731L546.807 569.167L549.066 570.472L582.564 551.036ZM618.745 530.012L616.486 528.707L582.988 548.143L585.247 549.449L618.745 530.012ZM654.926 508.989L652.667 507.684L619.169 527.12L621.428 528.425L654.926 508.989ZM691.071 488L688.812 486.695L655.385 506.132L657.644 507.437L691.071 488Z" fill="white"/>
<path d="M438.088 677.177L435.829 675.872L402.437 695.273L404.696 696.578L438.088 677.177ZM474.269 656.154L472.01 654.849L438.512 674.285L440.771 675.59L474.269 656.154ZM510.45 635.13L508.191 633.825L474.693 653.261L476.952 654.566L510.45 635.13ZM546.631 614.107L544.371 612.802L510.873 632.238L513.132 633.543L546.631 614.107ZM582.811 593.083L580.552 591.778L547.054 611.214L549.313 612.519L582.811 593.083ZM618.992 572.06L616.733 570.754L583.235 590.191L585.494 591.496L618.992 572.06ZM655.173 551.036L652.914 549.731L619.416 569.167L621.675 570.472L655.173 551.036ZM691.354 530.012L689.095 528.707L655.597 548.143L657.856 549.449L691.354 530.012ZM727.499 509.024L725.24 507.719L691.813 527.155L694.072 528.46L727.499 509.024Z" fill="white"/>
<path d="M474.516 698.201L472.257 696.896L438.865 716.297L441.124 717.602L474.516 698.201ZM510.697 677.177L508.438 675.872L474.94 695.309L477.199 696.614L510.697 677.177ZM546.878 656.154L544.619 654.849L511.12 674.285L513.38 675.59L546.878 656.154ZM583.059 635.13L580.799 633.825L547.301 653.261L549.56 654.567L583.059 635.13ZM619.239 614.107L616.98 612.802L583.482 632.238L585.741 633.543L619.239 614.107ZM655.42 593.083L653.161 591.778L619.663 611.214L621.922 612.519L655.42 593.083ZM691.601 572.06L689.342 570.755L655.844 590.191L658.103 591.496L691.601 572.06ZM727.782 551.036L725.523 549.731L692.025 569.167L694.284 570.472L727.782 551.036ZM763.927 530.048L761.668 528.743L728.241 548.179L730.5 549.484L763.927 530.048Z" fill="white"/>
<path d="M800.496 551.071L798.272 549.801L764.81 569.202L765.904 569.837L763.221 571.424L762.092 570.79L728.629 590.226L729.723 590.861L727.005 592.448L725.911 591.813L692.413 611.249L693.542 611.884L690.824 613.472L689.695 612.837L656.232 632.273L657.326 632.908L654.608 634.495L653.514 633.86L620.016 653.296L621.145 653.931L618.427 655.519L617.298 654.884L583.835 674.32L584.929 674.955L582.211 676.542L581.117 675.907L547.619 695.344L548.748 695.979L546.03 697.566L544.901 696.931L511.438 716.367L512.532 717.002L509.814 718.554L508.72 717.919L475.328 737.32L477.551 738.625L800.496 551.071Z" fill="white"/>
<path d="M476.351 738.026L2.71797 464.755L0 466.342L473.633 739.578L476.351 738.026Z" fill="white"/>
<path d="M512.532 717.002L511.438 716.367L477.234 696.613L475.01 695.343L440.806 675.625L438.582 674.32L404.378 654.601L402.119 653.296L367.95 633.578L365.691 632.273L331.522 612.554L329.263 611.249L295.059 591.531L292.835 590.226L258.631 570.507L256.407 569.202L222.203 549.484L219.944 548.179L185.775 528.46L183.516 527.155L149.347 507.437L147.088 506.131L112.884 486.413L110.66 485.108L76.4563 465.389L74.2325 464.084L40.0284 444.366L38.9342 443.731L36.2162 445.318L37.3104 445.953L71.5146 465.672L73.7383 466.977L107.942 486.695L110.166 488L144.37 507.719L146.629 509.024L180.798 528.742L183.057 530.047L217.226 549.766L219.485 551.071L253.689 570.789L255.913 572.095L290.117 591.813L292.341 593.118L326.545 612.837L328.804 614.106L362.973 633.86L365.232 635.13L399.401 654.884L401.66 656.154L435.864 675.907L438.088 677.177L472.292 696.931L474.516 698.201L508.72 717.919L509.814 718.554L512.532 717.002Z" fill="white"/>
<path d="M548.748 695.978L547.619 695.343L513.45 675.625L511.191 674.32L477.022 654.601L474.763 653.296L440.559 633.578L438.335 632.273L404.131 612.554L401.907 611.249L367.703 591.531L365.444 590.226L331.275 570.507L329.016 569.202L294.847 549.484L292.588 548.178L258.384 528.46L256.16 527.155L221.956 507.436L219.732 506.131L185.528 486.413L183.269 485.108L149.1 465.389L146.841 464.084L112.672 444.366L110.413 443.096L76.2092 423.342L75.1149 422.707L72.397 424.295L73.5265 424.93L107.695 444.648L109.954 445.953L144.123 465.672L146.382 466.977L180.586 486.695L182.81 488L217.014 507.719L219.238 509.024L253.442 528.742L255.701 530.047L289.87 549.766L292.129 551.071L326.298 570.789L328.557 572.094L362.726 591.813L364.985 593.118L399.189 612.836L401.413 614.106L435.617 633.86L437.841 635.13L472.045 654.884L474.304 656.153L508.473 675.907L510.732 677.177L544.901 696.931L546.03 697.566L548.748 695.978Z" fill="white"/>
<path d="M584.929 674.955L583.835 674.32L549.631 654.601L547.407 653.296L513.203 633.578L510.944 632.273L476.775 612.554L474.516 611.249L440.347 591.531L438.088 590.225L403.884 570.507L401.66 569.202L367.456 549.483L365.232 548.178L331.028 528.46L328.804 527.155L294.6 507.436L292.341 506.131L258.172 486.413L255.913 485.108L221.744 465.389L219.485 464.084L185.281 444.366L183.057 443.096L148.853 423.342L146.63 422.072L112.425 402.319L111.331 401.684L108.613 403.271L109.707 403.906L143.912 423.624L146.135 424.929L180.339 444.648L182.563 445.953L216.767 465.671L219.026 466.977L253.195 486.695L255.454 488L289.623 507.719L291.882 509.024L326.086 528.742L328.31 530.047L362.514 549.766L364.738 551.071L398.942 570.789L401.201 572.094L435.37 591.813L437.629 593.118L471.798 612.836L474.057 614.106L508.261 633.86L510.485 635.13L544.689 654.883L546.913 656.153L581.117 675.907L582.211 676.542L584.929 674.955Z" fill="white"/>
<path d="M621.145 653.931L620.016 653.296L585.847 633.578L583.588 632.272L549.419 612.554L547.16 611.249L512.956 591.53L510.732 590.225L476.528 570.507L474.304 569.202L440.1 549.483L437.841 548.178L403.672 528.46L401.413 527.155L367.244 507.436L364.985 506.131L330.781 486.413L328.557 485.107L294.353 465.389L292.129 464.084L257.925 444.366L255.666 443.096L221.497 423.342L219.238 422.072L185.069 402.318L182.81 401.049L148.606 381.295L147.512 380.66L144.794 382.247L145.888 382.882L180.092 402.601L182.351 403.906L216.52 423.624L218.779 424.929L252.948 444.648L255.207 445.953L289.411 465.671L291.635 466.976L325.839 486.695L328.063 488L362.267 507.718L364.526 509.024L398.695 528.742L400.954 530.047L435.123 549.766L437.382 551.071L471.586 570.789L473.81 572.094L508.014 591.813L510.238 593.118L544.442 612.836L546.701 614.106L580.87 633.86L583.129 635.13L617.298 654.883L618.427 655.518L621.145 653.931Z" fill="white"/>
<path d="M657.326 632.907L656.232 632.272L622.028 612.554L619.804 611.249L585.6 591.53L583.341 590.225L549.172 570.507L546.913 569.202L512.744 549.483L510.485 548.178L476.281 528.46L474.057 527.154L439.853 507.436L437.629 506.131L403.425 486.413L401.201 485.107L366.997 465.389L364.738 464.084L330.569 444.365L328.31 443.096L294.141 423.342L291.882 422.072L257.678 402.318L255.454 401.048L221.25 381.295L219.026 380.025L184.822 360.271L183.728 359.636L181.01 361.224L182.104 361.859L216.308 381.577L218.532 382.882L252.736 402.6L254.96 403.906L289.164 423.624L291.423 424.929L325.592 444.648L327.851 445.953L362.02 465.671L364.279 466.976L398.483 486.695L400.707 488L434.911 507.718L437.135 509.023L471.339 528.742L473.598 530.047L507.767 549.765L510.026 551.071L544.195 570.789L546.454 572.094L580.658 591.812L582.882 593.082L617.086 612.836L619.31 614.106L653.514 633.86L654.608 634.495L657.326 632.907Z" fill="white"/>
<path d="M693.542 611.884L692.413 611.249L658.244 591.531L655.985 590.225L621.816 570.507L619.557 569.202L585.353 549.483L583.129 548.178L548.925 528.46L546.701 527.155L512.497 507.436L510.238 506.131L476.069 486.413L473.81 485.108L439.641 465.389L437.382 464.084L403.178 444.366L400.954 443.096L366.75 423.342L364.526 422.072L330.322 402.319L328.063 401.049L293.894 381.295L291.635 380.025L257.466 360.271L255.207 359.002L221.003 339.283L219.909 338.648L217.191 340.2L218.285 340.835L252.489 360.554L254.748 361.859L288.917 381.577L291.176 382.882L325.345 402.601L327.604 403.906L361.808 423.624L364.032 424.929L398.236 444.648L400.46 445.953L434.664 465.671L436.923 466.977L471.092 486.695L473.351 488L507.52 507.719L509.779 509.024L543.983 528.742L546.207 530.047L580.411 549.766L582.635 551.071L616.839 570.789L619.098 572.094L653.267 591.813L655.526 593.083L689.695 612.836L690.824 613.471L693.542 611.884Z" fill="white"/>
<path d="M729.723 590.861L728.629 590.226L694.425 570.507L692.201 569.202L657.997 549.484L655.738 548.179L621.569 528.46L619.31 527.155L585.141 507.437L582.882 506.132L548.678 486.413L546.454 485.108L512.25 465.39L510.026 464.084L475.822 444.366L473.563 443.096L439.394 423.342L437.135 422.073L402.966 402.319L400.707 401.049L366.503 381.295L364.279 380.025L330.075 360.272L327.851 359.002L293.647 339.284L291.423 337.978L257.219 318.26L256.125 317.625L253.407 319.177L254.501 319.812L288.705 339.566L290.929 340.836L325.133 360.554L327.357 361.859L361.561 381.578L363.82 382.883L397.989 402.601L400.248 403.906L434.417 423.625L436.676 424.93L470.88 444.648L473.104 445.953L507.308 465.672L509.532 466.977L543.736 486.695L545.96 488L580.164 507.719L582.423 509.024L616.592 528.742L618.851 530.048L653.02 549.766L655.279 551.071L689.483 570.79L691.707 572.095L725.911 591.813L727.005 592.448L729.723 590.861Z" fill="white"/>
<path d="M765.904 569.837L764.81 569.202L730.641 549.484L728.382 548.179L694.178 528.46L691.954 527.155L657.75 507.437L655.526 506.131L621.322 486.413L619.098 485.108L584.894 465.389L582.635 464.084L548.466 444.366L546.207 443.061L512.038 423.342L509.779 422.072L475.575 402.319L473.351 401.049L439.147 381.295L436.923 380.025L402.719 360.272L400.46 359.002L366.291 339.283L364.032 337.978L329.863 318.26L327.604 316.955L293.4 297.236L292.306 296.601L289.588 298.153L290.682 298.788L324.886 318.542L327.145 319.812L361.314 339.566L363.573 340.835L397.742 360.554L400.001 361.859L434.205 381.577L436.429 382.883L470.633 402.601L472.857 403.906L507.061 423.625L509.32 424.93L543.489 444.648L545.748 445.953L579.917 465.672L582.176 466.977L616.38 486.695L618.604 488L652.808 507.719L655.032 509.024L689.236 528.742L691.495 530.047L725.664 549.766L727.923 551.071L762.092 570.789L763.221 571.424L765.904 569.837Z" fill="white"/>
<path d="M802.12 548.813L328.522 275.578L325.804 277.13L799.402 550.401L802.12 548.813Z" fill="white"/>
<path d="M548.917 18.3433L518.319 36.1161L487.524 18.3433L518.123 0.577637L548.917 18.3433Z" fill="#F6E4FF" stroke="white" stroke-miterlimit="10"/>
<path d="M548.918 18.3433L548.816 54.4401L518.218 72.2057L518.319 36.1161L548.918 18.3433Z" fill="#4A6EFF" stroke="white" stroke-miterlimit="10"/>
<path d="M518.319 36.1161L518.218 72.2057L487.423 54.4401L487.525 18.3433L518.319 36.1161Z" fill="#4A6EFF" stroke="white" stroke-miterlimit="10"/>
<path d="M199.79 449.889L152.706 477.234L105.31 449.889L152.401 422.544L199.79 449.889Z" fill="#F6E4FF" stroke="white" stroke-miterlimit="10"/>
<path d="M199.79 449.889L199.638 505.434L152.547 532.778L152.706 477.233L199.79 449.889Z" fill="#4A6EFF" stroke="white" stroke-miterlimit="10"/>
<path d="M152.706 477.233L152.547 532.778L105.158 505.434L105.31 449.889L152.706 477.233Z" fill="#4A6EFF" stroke="white" stroke-miterlimit="10"/>
<path d="M330.955 442.578L150.909 550.078C151.262 550.447 330.955 654.682 330.955 654.682C373.409 630.736 331.664 654.867 331.972 654.682L650.889 470.384L394.409 453.994L330.955 442.578Z" fill="#163EE0"/>
<path d="M491.032 370.506V465.696L408.596 418.101V322.941L491.032 370.506Z" fill="#BDBDF4" stroke="#8D8DFF" stroke-width="0.75" stroke-linejoin="round"/>
<path d="M573.469 322.941V418.101L491.032 465.696V370.506L573.469 322.941Z" fill="white" stroke="#8D8DFF" stroke-width="0.75" stroke-linejoin="round"/>
<path d="M573.469 322.942L491.032 370.507L408.596 322.942L491.032 275.347L573.469 322.942Z" fill="white" stroke="#8D8DFF" stroke-width="0.75" stroke-linejoin="round"/>
<path d="M571.349 418.101V513.291L488.913 465.696V370.506L571.349 418.101Z" fill="#BDBDF4" stroke="#8D8DFF" stroke-width="0.75" stroke-linejoin="round"/>
<path d="M653.785 370.506V465.696L571.349 513.291V418.101L653.785 370.506Z" fill="white" stroke="#8D8DFF" stroke-width="0.75" stroke-linejoin="round"/>
<path d="M653.785 370.506L571.349 418.101L488.913 370.506L571.349 322.941L653.785 370.506Z" fill="white" stroke="#8D8DFF" stroke-width="0.75" stroke-linejoin="round"/>
<path d="M408.596 419.146V514.306L326.19 466.741V371.551L408.596 419.146Z" fill="#BDBDF4" stroke="#8D8DFF" stroke-width="0.75" stroke-linejoin="round"/>
<path d="M491.032 371.551V466.741L408.596 514.306V419.146L491.032 371.551Z" fill="white" stroke="#8D8DFF" stroke-width="0.75" stroke-linejoin="round"/>
<path d="M491.032 371.552L408.596 419.147L326.19 371.552L408.596 323.957L491.032 371.552Z" fill="white" stroke="#8D8DFF" stroke-width="0.75" stroke-linejoin="round"/>
<path d="M491.54 465.696V560.886L409.104 513.291V418.102L491.54 465.696Z" fill="#BDBDF4" stroke="#8D8DFF" stroke-width="0.75" stroke-linejoin="round"/>
<path d="M573.976 418.102V513.291L491.54 560.886V465.696L573.976 418.102Z" fill="white" stroke="#8D8DFF" stroke-width="0.75" stroke-linejoin="round"/>
<path d="M573.976 418.101L491.54 465.696L409.104 418.101L491.54 370.506L573.976 418.101Z" fill="white" stroke="#8D8DFF" stroke-width="0.75" stroke-linejoin="round"/>
<path d="M489.958 275.349V370.509L407.551 322.944V227.754L489.958 275.349Z" fill="#BDBDF4" stroke="#8D8DFF" stroke-width="0.75" stroke-linejoin="round"/>
<path d="M572.424 227.754V322.944L489.958 370.509V275.349L572.424 227.754Z" fill="white" stroke="#8D8DFF" stroke-width="0.75" stroke-linejoin="round"/>
<path d="M572.424 227.753L489.958 275.348L407.551 227.753L489.958 180.158L572.424 227.753Z" fill="white" stroke="#8D8DFF" stroke-width="0.75" stroke-linejoin="round"/>
<path d="M626.473 302.508V396.513L545.037 349.524V255.489L626.473 302.508Z" fill="url(#paint0_linear_423_9537)" stroke="white"/>
<path d="M708.91 349.524L627.473 396.513V302.508L708.91 255.489V349.524Z" fill="url(#paint1_linear_423_9537)" stroke="white"/>
<path d="M708.408 254.626L626.972 301.644L545.537 254.626L626.972 207.608L708.408 254.626Z" fill="url(#paint2_linear_423_9537)" stroke="white"/>
<path d="M407.521 323.957V419.147L325.115 371.552V276.362L407.521 323.957Z" fill="#BDBDF4" stroke="#8D8DFF" stroke-width="0.75" stroke-linejoin="round"/>
<path d="M489.988 276.362V371.552L407.521 419.147V323.957L489.988 276.362Z" fill="white" stroke="#8D8DFF" stroke-width="0.75" stroke-linejoin="round"/>
<path d="M489.987 276.363L407.521 323.958L325.115 276.363L407.521 228.769L489.987 276.363Z" fill="white" stroke="#8D8DFF" stroke-width="0.75" stroke-linejoin="round"/>
<path d="M490.465 370.506V465.696L408.059 418.101V322.941L490.465 370.506Z" fill="#BDBDF4" stroke="#8D8DFF" stroke-width="0.75" stroke-linejoin="round"/>
<path d="M572.901 322.941V418.101L490.465 465.696V370.506L572.901 322.941Z" fill="white" stroke="#8D8DFF" stroke-width="0.75" stroke-linejoin="round"/>
<path d="M572.901 322.942L490.465 370.507L408.059 322.942L490.465 275.347L572.901 322.942Z" fill="white" stroke="#8D8DFF" stroke-width="0.75" stroke-linejoin="round"/>
<path d="M325.503 466.204V561.394L243.067 513.799V418.639L325.503 466.204Z" fill="#BDBDF4" stroke="#8D8DFF" stroke-width="0.75" stroke-linejoin="round"/>
<path d="M407.939 418.639V513.799L325.503 561.394V466.204L407.939 418.639Z" fill="white" stroke="#8D8DFF" stroke-width="0.75" stroke-linejoin="round"/>
<path d="M407.939 418.639L325.503 466.204L243.067 418.639L325.503 371.044L407.939 418.639Z" fill="white" stroke="#8D8DFF" stroke-width="0.75" stroke-linejoin="round"/>
<path d="M408.417 512.784V607.944L326.011 560.379V465.189L408.417 512.784Z" fill="#BDBDF4" stroke="#8D8DFF" stroke-width="0.75" stroke-linejoin="round"/>
<path d="M490.883 465.189V560.379L408.417 607.944V512.784L490.883 465.189Z" fill="white" stroke="#8D8DFF" stroke-width="0.75" stroke-linejoin="round"/>
<path d="M490.883 465.188L408.417 512.783L326.011 465.188L408.417 417.594L490.883 465.188Z" fill="white" stroke="#8D8DFF" stroke-width="0.75" stroke-linejoin="round"/>
<path d="M312.493 221.056V315.061L231.087 268.072V174.037L312.493 221.056Z" fill="url(#paint3_linear_423_9537)" stroke="white"/>
<path d="M394.959 268.072L313.493 315.061V221.056L394.959 174.037V268.072Z" fill="url(#paint4_linear_423_9537)" stroke="white"/>
<path d="M394.458 173.172L312.993 220.189L231.586 173.172L312.993 126.153L394.458 173.172Z" fill="url(#paint5_linear_423_9537)" stroke="white"/>
<path d="M407.372 417.594V512.783L324.936 465.189V369.999L407.372 417.594Z" fill="#BDBDF4" stroke="#8D8DFF" stroke-width="0.75" stroke-linejoin="round"/>
<path d="M489.808 369.999V465.189L407.372 512.783V417.594L489.808 369.999Z" fill="white" stroke="#8D8DFF" stroke-width="0.75" stroke-linejoin="round"/>
<path d="M489.808 369.999L407.372 417.594L324.936 369.999L407.372 322.404L489.808 369.999Z" fill="white" stroke="#8D8DFF" stroke-width="0.75" stroke-linejoin="round"/>
<g filter="url(#filter0_f_423_9537)" style="mix-blend-mode:screen">
<path fill-rule="evenodd" clip-rule="evenodd" d="M391.899 217.842C391.899 259.922 357.529 294.032 315.133 294.032C272.736 294.032 238.366 259.922 238.366 217.842C238.366 175.762 272.733 141.653 315.133 141.653C357.532 141.653 391.899 175.765 391.899 217.842Z" fill="url(#paint6_linear_423_9537)"/>
<path d="M315.132 142.153C357.259 142.153 391.4 176.045 391.4 217.843C391.4 259.643 357.256 293.532 315.132 293.532C273.009 293.532 238.866 259.643 238.866 217.843C238.866 176.042 273.006 142.153 315.132 142.153Z" stroke="black"/>
</g>
<g filter="url(#filter1_f_423_9537)" style="mix-blend-mode:screen">
<path fill-rule="evenodd" clip-rule="evenodd" d="M708.943 293.767C708.943 335.847 674.572 369.956 632.176 369.956C589.78 369.956 555.409 335.847 555.409 293.767C555.409 251.687 589.777 217.577 632.176 217.577C674.575 217.577 708.943 251.689 708.943 293.767Z" fill="url(#paint7_linear_423_9537)"/>
<path d="M632.176 218.077C674.302 218.077 708.443 251.969 708.443 293.767C708.443 335.567 674.3 369.456 632.176 369.456C590.052 369.456 555.909 335.567 555.909 293.767C555.909 251.967 590.049 218.078 632.176 218.077Z" stroke="black"/>
</g>
<defs>
<filter id="filter0_f_423_9537" x="138.366" y="41.6531" width="353.534" height="352.378" filterUnits="userSpaceOnUse" color-interpolation-filters="sRGB">
<feFlood flood-opacity="0" result="BackgroundImageFix"/>
<feBlend mode="normal" in="SourceGraphic" in2="BackgroundImageFix" result="shape"/>
<feGaussianBlur stdDeviation="0" result="effect1_foregroundBlur_423_9537"/>
</filter>
<filter id="filter1_f_423_9537" x="455.409" y="117.577" width="353.534" height="352.378" filterUnits="userSpaceOnUse" color-interpolation-filters="sRGB">
<feFlood flood-opacity="0" result="BackgroundImageFix"/>
<feBlend mode="normal" in="SourceGraphic" in2="BackgroundImageFix" result="shape"/>
<feGaussianBlur stdDeviation="0" result="effect1_foregroundBlur_423_9537"/>
</filter>
<linearGradient id="paint0_linear_423_9537" x1="584.295" y1="400.18" x2="666.933" y2="318.359" gradientUnits="userSpaceOnUse">
<stop stop-color="#FF7513"/>
<stop offset="0.945" stop-color="#FFB73A"/>
</linearGradient>
<linearGradient id="paint1_linear_423_9537" x1="666.731" y1="400.18" x2="749.369" y2="318.359" gradientUnits="userSpaceOnUse">
<stop stop-color="#FF7513"/>
<stop offset="0.945" stop-color="#FFB73A"/>
</linearGradient>
<linearGradient id="paint2_linear_423_9537" x1="624.053" y1="304.089" x2="657.386" y2="205.101" gradientUnits="userSpaceOnUse">
<stop stop-color="#FF7513"/>
<stop offset="0.945" stop-color="#FFB73A"/>
</linearGradient>
<linearGradient id="paint3_linear_423_9537" x1="270.33" y1="318.727" x2="352.968" y2="236.937" gradientUnits="userSpaceOnUse">
<stop stop-color="#FF7513"/>
<stop offset="0.945" stop-color="#FFB73A"/>
</linearGradient>
<linearGradient id="paint4_linear_423_9537" x1="352.765" y1="318.727" x2="435.404" y2="236.877" gradientUnits="userSpaceOnUse">
<stop stop-color="#FF7513"/>
<stop offset="0.945" stop-color="#FFB73A"/>
</linearGradient>
<linearGradient id="paint5_linear_423_9537" x1="310.103" y1="222.634" x2="343.435" y2="123.646" gradientUnits="userSpaceOnUse">
<stop stop-color="#FF7513"/>
<stop offset="0.945" stop-color="#FFB73A"/>
</linearGradient>
<linearGradient id="paint6_linear_423_9537" x1="312.413" y1="297.021" x2="388.907" y2="164.873" gradientUnits="userSpaceOnUse">
<stop stop-color="#FF7513"/>
<stop offset="0.945" stop-color="#FFB73A"/>
</linearGradient>
<linearGradient id="paint7_linear_423_9537" x1="629.457" y1="372.945" x2="705.95" y2="240.797" gradientUnits="userSpaceOnUse">
<stop stop-color="#FF7513"/>
<stop offset="0.945" stop-color="#FFB73A"/>
</linearGradient>
</defs>
</svg>
