<svg width="270" height="267" viewBox="0 0 270 267" fill="none" xmlns="http://www.w3.org/2000/svg">
<g opacity="0.6">
<path d="M229.011 148.486C224.267 176.587 207.338 202.367 180.58 217.41C155.888 231.291 127.735 233.269 102.733 225.202M69.5391 206.764C60.8972 199.442 53.3879 190.485 47.511 180.031C29.4848 147.965 31.4666 110.094 49.4209 80.8474" stroke="#FAFCFF" stroke-width="0.93319" stroke-dasharray="1.87 1.87"/>
<path d="M228.539 112.139C226.545 102.527 223.058 93.0523 217.99 84.037C198.654 49.6408 161.644 31.4415 124.769 34.4408" stroke="#FAFCFF" stroke-width="0.93319" stroke-dasharray="1.87 1.87"/>
<path d="M51.793 76.1219C52.1041 75.9424 52.4932 76.1671 52.4933 76.5262L52.4933 84.5302C52.4932 84.8892 52.104 85.1139 51.793 84.9344L44.8615 80.9324C44.5505 80.7529 44.5505 80.3035 44.8614 80.1239L51.793 76.1219Z" fill="white" stroke="#FAFCFF" stroke-width="0.311063"/>
<path d="M231.118 105.101C231.468 105.022 231.773 105.352 231.666 105.695L229.29 113.338C229.183 113.681 228.745 113.78 228.501 113.516L223.07 107.636C222.827 107.372 222.96 106.943 223.311 106.864L231.118 105.101Z" fill="white" stroke="#FAFCFF" stroke-width="0.311063"/>
<path d="M99.8494 224.307C99.6207 224.03 99.7776 223.609 100.132 223.549L108.024 222.219C108.378 222.16 108.665 222.506 108.539 222.843L105.745 230.343C105.619 230.679 105.176 230.754 104.948 230.477L99.8494 224.307Z" fill="white" stroke="#FAFCFF" stroke-width="0.311063"/>
</g>
<path d="M209.444 104.904C217.774 127.284 216.291 153.084 203.175 175.21C191.073 195.628 171.473 208.858 149.949 213.479M118.137 214.006C108.799 212.314 99.5967 208.96 90.9523 203.836C64.4373 188.12 50.0088 159.808 50.7844 131.063" stroke="#FFB73A" stroke-width="0.93319" stroke-dasharray="1.87 1.87"/>
<path d="M193.873 78.7266C188.398 72.5869 181.899 67.1725 174.444 62.7538C146.002 45.8951 111.521 48.1939 86.018 65.8199" stroke="#FFB73A" stroke-width="0.93319" stroke-dasharray="1.87 1.87"/>
<path d="M50.4604 126.803C50.6401 126.492 51.0884 126.492 51.2681 126.803L54.4468 132.309C54.6263 132.62 54.4016 133.009 54.0425 133.009L47.686 133.009C47.3269 133.009 47.1022 132.62 47.2817 132.309L50.4604 126.803Z" fill="#FFB73A" stroke="#FFB73A" stroke-width="0.311063"/>
<path d="M192.684 72.6759C192.948 72.4325 193.376 72.5657 193.456 72.9157L194.856 79.1171C194.935 79.4675 194.605 79.7723 194.262 79.6657L188.192 77.778C187.849 77.6714 187.75 77.2331 188.014 76.9894L192.684 72.6759Z" fill="#FFB73A" stroke="#FFB73A" stroke-width="0.311063"/>
<path d="M147.654 214.075C147.318 213.949 147.244 213.507 147.52 213.278L152.421 209.229C152.698 209 153.119 209.157 153.179 209.511L154.235 215.779C154.295 216.133 153.948 216.42 153.612 216.294L147.654 214.075Z" fill="#FFB73A" stroke="#FFB73A" stroke-width="0.311063"/>
</svg>
