<svg width="216" height="43" viewBox="0 0 216 43" fill="none" xmlns="http://www.w3.org/2000/svg">
<path d="M141.366 31.1542C138.89 31.2934 136.495 30.6348 134.439 29.2503C132.451 27.9101 130.915 25.9384 130.114 23.6977C129.901 23.1035 129.739 22.4922 129.633 21.8833C129.554 21.4467 129.502 20.9956 129.476 20.5451C129.377 18.7793 129.682 17.0662 130.381 15.4546C130.57 15.0194 130.97 14.6982 131.442 14.6465C131.815 14.6058 132.175 14.7245 132.451 14.9738L137.68 19.7206C138.094 20.0957 138.221 20.6936 137.985 21.209C137.782 21.6537 137.332 21.934 136.844 21.9614L134.596 22.0878C134.394 22.0992 134.259 22.3048 134.335 22.4931C134.412 22.6814 134.503 22.8809 134.6 23.068C135.85 25.4836 138.409 26.946 141.121 26.7935C143.031 26.6861 144.826 25.7777 146.049 24.3019C146.241 24.0701 146.512 23.9126 146.812 23.876C147.147 23.8353 147.473 23.9384 147.722 24.1608L149.251 25.5322C149.697 25.9328 149.76 26.6186 149.392 27.0922L149.182 27.3645L149.169 27.3783C147.158 29.6447 144.387 30.9866 141.367 31.1563L141.366 31.1542Z" fill="white"/>
<path d="M150.85 23.6613C150.503 23.6809 150.17 23.5628 149.911 23.3279L144.682 18.5822C144.269 18.2071 144.141 17.6092 144.377 17.0926C144.58 16.648 145.03 16.3677 145.518 16.3403L147.766 16.2139C147.968 16.2025 148.103 15.9969 148.027 15.8086C147.95 15.6203 147.859 15.4208 147.762 15.2337C146.513 12.818 143.953 11.3557 141.241 11.5082C139.331 11.6156 137.536 12.524 136.313 13.9998C136.121 14.2316 135.85 14.3891 135.55 14.4257C135.215 14.4664 134.889 14.3633 134.64 14.1398L133.111 12.7684C132.665 12.3678 132.602 11.682 132.97 11.2084L133.18 10.9361L133.193 10.9223C135.205 8.65804 137.976 7.31617 140.996 7.14639C143.472 7.00718 145.867 7.66581 147.923 9.05034C149.911 10.3905 151.447 12.3622 152.248 14.6029C152.461 15.1971 152.623 15.8073 152.729 16.4174C152.808 16.8539 152.86 17.305 152.886 17.7555C152.986 19.5377 152.674 21.2654 151.962 22.8909C151.765 23.3385 151.339 23.6327 150.85 23.6602L150.85 23.6613Z" fill="white"/>
<path d="M115.395 19.3372C115.395 20.6225 114.289 21.556 113.004 21.556H98.59C98.727 23.1995 99.3022 24.4869 100.316 25.4182C101.329 26.3496 102.576 26.8152 104.055 26.8152C105.454 26.8152 106.589 26.4217 107.459 25.6346C108.351 24.8285 109.377 24.0623 110.579 24.0623C112.693 24.0623 114.191 26.1551 112.835 27.7771C112.317 28.3976 111.718 28.9672 111.04 29.4859C109.177 30.8829 106.89 31.5814 104.178 31.5814C101.987 31.5814 100.014 31.1021 98.2613 30.1433C96.5356 29.1572 95.1797 27.7739 94.1936 25.9935C93.2349 24.213 92.7555 22.1586 92.7555 19.8303C92.7555 17.4745 93.2349 15.4064 94.1936 13.626C95.1523 11.8455 96.4945 10.4759 98.2202 9.51717C99.946 8.55845 101.932 8.07909 104.178 8.07909C106.342 8.07909 108.273 8.54475 109.972 9.47608C111.697 10.4074 113.026 11.7359 113.957 13.4616C114.916 15.1599 115.395 17.1184 115.395 19.3372ZM109.437 17.6937C109.41 16.2145 108.876 15.0367 107.835 14.1601C106.794 13.2562 105.52 12.8042 104.014 12.8042C102.589 12.8042 101.384 13.2425 100.398 14.119C99.4392 14.9682 98.8503 16.1597 98.6311 17.6937H109.437Z" fill="white"/>
<path d="M83.7635 11.9825C84.5031 10.7772 85.4618 9.83219 86.6397 9.14739C87.0064 8.93903 87.3883 8.76238 87.7854 8.61741C89.3522 8.04552 90.7485 9.47228 90.7485 11.1402V12.6399C90.7485 13.4795 90.0679 14.1601 89.2282 14.1601C87.4203 14.1601 86.0507 14.5847 85.1194 15.4339C84.2155 16.283 83.7635 17.7622 83.7635 19.8714V28.3354C83.7635 29.9239 82.4758 31.2116 80.8873 31.2116C79.2988 31.2116 78.0111 29.9239 78.0111 28.3355V11.3251C78.0111 9.7366 79.2988 8.44889 80.8873 8.44889C82.4758 8.44889 83.7635 9.73661 83.7635 11.3251V11.9825Z" fill="white"/>
<path d="M48.9307 19.7481C48.9307 17.4472 49.3826 15.4064 50.2866 13.626C51.2179 11.8455 52.4643 10.4759 54.0256 9.51717C55.6144 8.55845 57.3812 8.07909 59.326 8.07909C61.0243 8.07909 62.5035 8.42149 63.7636 9.10629C65.051 9.79109 66.0782 10.6539 66.8452 11.6948V11.3456C66.8452 9.74579 68.1421 8.44888 69.7419 8.44888C71.3417 8.44888 72.6387 9.74579 72.6387 11.3456V28.3149C72.6387 29.9147 71.3417 31.2116 69.7419 31.2116C68.1421 31.2116 66.8452 29.9147 66.8452 28.3149V27.8835C66.1056 28.9518 65.0784 29.842 63.7636 30.5542C62.4761 31.239 60.9833 31.5814 59.2849 31.5814C57.3675 31.5814 55.6144 31.0884 54.0256 30.1023C52.4643 29.1161 51.2179 27.7328 50.2866 25.9524C49.3826 24.1445 48.9307 22.0764 48.9307 19.7481ZM66.8452 19.8303C66.8452 18.4333 66.5713 17.2417 66.0234 16.2556C65.4756 15.2421 64.736 14.4751 63.8047 13.9547C62.8733 13.4068 61.8735 13.1329 60.8052 13.1329C59.7369 13.1329 58.7508 13.3931 57.8468 13.9136C56.9429 14.434 56.2033 15.201 55.6281 16.2145C55.0802 17.2006 54.8063 18.3785 54.8063 19.7481C54.8063 21.1177 55.0802 22.3229 55.6281 23.3638C56.2033 24.3773 56.9429 25.158 57.8468 25.7058C58.7782 26.2537 59.7643 26.5276 60.8052 26.5276C61.8735 26.5276 62.8733 26.2674 63.8047 25.7469C64.736 25.1991 65.4756 24.4321 66.0234 23.446C66.5713 22.4325 66.8452 21.2272 66.8452 19.8303Z" fill="white"/>
<path d="M35.7017 8.12062C37.4274 8.12062 38.9613 8.50411 40.3036 9.27109C41.6458 10.0107 42.6867 11.12 43.4263 12.5992C44.1933 14.051 44.5767 15.8041 44.5767 17.8585V28.3359C44.5767 29.9244 43.289 31.2121 41.7006 31.2121C40.1121 31.2121 38.8244 29.9244 38.8244 28.3359V18.6391C38.8244 16.8313 38.3724 15.448 37.4685 14.4893C36.5645 13.5031 35.3319 13.0101 33.7705 13.0101C32.1817 13.0101 30.9217 13.5031 29.9904 14.4893C29.0864 15.448 28.6345 16.8313 28.6345 18.6391V28.3359C28.6345 29.9243 27.3467 31.2121 25.7583 31.2121C24.1698 31.2121 22.8821 29.9244 22.8821 28.3359V3.68315C22.8821 2.09468 24.1698 0.806965 25.7583 0.806965C27.3467 0.806965 28.6345 2.09468 28.6345 3.68315V11.2844C29.374 10.2983 30.3602 9.53131 31.5928 8.98347C32.8255 8.40824 34.1951 8.12062 35.7017 8.12062Z" fill="white"/>
<path d="M9.94339 31.5814C8.08072 31.5814 6.40979 31.2527 4.93061 30.5953C3.45142 29.9105 2.27356 28.9929 1.39701 27.8424C1.20231 27.5786 1.02777 27.3084 0.873398 27.0316C0.0377612 25.5337 1.46768 24.0212 3.18298 24.0212C4.66436 24.0212 5.89787 25.2894 7.0672 26.1989C7.83418 26.7741 8.77922 27.0617 9.9023 27.0617C10.998 27.0617 11.8471 26.8426 12.4498 26.4043C13.0798 25.9661 13.3948 25.4045 13.3948 24.7197C13.3948 23.9801 13.0113 23.4323 12.2443 23.0762C11.5047 22.6927 10.3132 22.2818 8.66965 21.8436C6.97133 21.4327 5.57432 21.0081 4.47863 20.5698C3.41034 20.1316 2.479 19.4605 1.68462 18.5565C0.917641 17.6526 0.534149 16.4336 0.534149 14.8997C0.534149 13.6397 0.890248 12.4892 1.60245 11.4483C2.34204 10.4074 3.38294 9.58565 4.72516 8.98303C6.09478 8.3804 7.69722 8.07909 9.5325 8.07909C12.2443 8.07909 14.4083 8.76389 16.0245 10.1335C16.895 10.8564 17.5549 11.7184 18.0042 12.7195C18.6626 14.1865 17.3127 15.5982 15.7047 15.5982C14.2872 15.5982 13.1675 14.3193 12.0389 13.4616C11.3815 12.9138 10.4912 12.6399 9.36815 12.6399C8.32725 12.6399 7.51917 12.8316 6.94394 13.2151C6.39609 13.5986 6.12217 14.1327 6.12217 14.8175C6.12217 15.5845 6.50566 16.1734 7.27264 16.5843C8.03963 16.9678 9.23119 17.365 10.8473 17.7759C12.4909 18.1867 13.8468 18.6113 14.9151 19.0496C15.9834 19.4879 16.901 20.1727 17.668 21.104C18.4624 22.0079 18.8733 23.2132 18.9007 24.7197C18.9007 26.0345 18.5309 27.2124 17.7913 28.2533C17.0791 29.2942 16.0382 30.1159 14.6686 30.7186C13.3263 31.2938 11.7513 31.5814 9.94339 31.5814Z" fill="white"/>
<path d="M194.69 19.8302C194.69 17.4745 195.169 15.4201 196.128 13.667C197.086 11.8865 198.415 10.5169 200.113 9.55819C201.812 8.57208 203.756 8.07902 205.948 8.07902C208.769 8.07902 211.097 8.79121 212.933 10.2156C214.177 11.1488 215.146 12.3387 215.841 13.7853C216.389 14.9286 215.446 16.1323 214.178 16.1323H211.875C211.034 16.1323 210.327 15.5635 209.843 14.8771C209.554 14.4679 209.2 14.1193 208.783 13.8313C208.016 13.2561 207.057 12.9685 205.907 12.9685C204.263 12.9685 202.962 13.5711 202.003 14.7764C201.045 15.9542 200.565 17.6388 200.565 19.8302C200.565 21.9942 201.045 23.6788 202.003 24.884C202.962 26.0619 204.263 26.6508 205.907 26.6508C207.709 26.6508 209.026 26.0274 209.86 24.7806C210.324 24.0868 211.028 23.5281 211.863 23.5281H214.158C215.432 23.5281 216.374 24.7426 215.807 25.8838C215.115 27.2761 214.157 28.4494 212.933 29.4037C211.07 30.8555 208.742 31.5814 205.948 31.5814C203.756 31.5814 201.812 31.102 200.113 30.1433C198.415 29.1572 197.086 27.7876 196.128 26.0345C195.169 24.254 194.69 22.1859 194.69 19.8302Z" fill="white"/>
<path d="M187.349 6.81227C186.335 6.81227 185.486 6.49727 184.801 5.86725C184.144 5.20984 183.815 4.40178 183.815 3.44306C183.815 2.48434 184.144 1.68997 184.801 1.05995C185.486 0.402546 186.335 0.0738419 187.349 0.0738419C188.362 0.0738419 189.198 0.402546 189.855 1.05995C190.54 1.68997 190.882 2.48434 190.882 3.44306C190.882 4.40178 190.54 5.20984 189.855 5.86725C189.198 6.49727 188.362 6.81227 187.349 6.81227ZM188.231 8.44868C189.31 8.44868 190.184 9.32276 190.184 10.401V29.2591C190.184 30.3373 189.31 31.2114 188.231 31.2114H186.384C185.306 31.2114 184.431 30.3373 184.431 29.2591V10.401C184.431 9.32276 185.306 8.44868 186.384 8.44868H188.231Z" fill="white"/>
<path d="M166.022 8.07902C167.721 8.07902 169.214 8.42142 170.501 9.10622C171.788 9.76363 172.802 10.6265 173.542 11.6948V10.4011C173.542 9.3229 174.416 8.44882 175.494 8.44882H177.383C178.461 8.44882 179.335 9.3229 179.335 10.4011V31.3759C179.335 33.4851 178.91 35.3614 178.061 37.005C177.212 38.6759 175.938 39.9907 174.24 40.9494C172.542 41.9355 170.487 42.4286 168.077 42.4286C164.844 42.4286 162.187 41.6753 160.106 40.1687C158.644 39.0967 157.633 37.7472 157.072 36.1204C156.695 35.0245 157.623 34.0055 158.782 34.0055H160.857C161.726 34.0055 162.45 34.6174 162.967 35.3159C163.299 35.7636 163.728 36.1485 164.256 36.4708C165.269 37.1008 166.488 37.4158 167.912 37.4158C169.583 37.4158 170.939 36.9091 171.98 35.8956C173.021 34.9095 173.542 33.4029 173.542 31.3759V27.8423C172.802 28.9106 171.775 29.8009 170.46 30.5131C169.172 31.2253 167.693 31.5814 166.022 31.5814C164.105 31.5814 162.352 31.0883 160.763 30.1022C159.174 29.1161 157.914 27.7328 156.983 25.9523C156.079 24.1444 155.627 22.0763 155.627 19.748C155.627 17.4471 156.079 15.4064 156.983 13.6259C157.914 11.8454 159.161 10.4758 160.722 9.5171C162.311 8.55838 164.077 8.07902 166.022 8.07902ZM173.542 19.8302C173.542 18.4332 173.268 17.2416 172.72 16.2555C172.172 15.242 171.432 14.4751 170.501 13.9546C169.57 13.4068 168.57 13.1328 167.502 13.1328C166.433 13.1328 165.447 13.3931 164.543 13.9135C163.639 14.434 162.9 15.2009 162.324 16.2144C161.777 17.2006 161.503 18.3784 161.503 19.748C161.503 21.1176 161.777 22.3229 162.324 23.3638C162.9 24.3773 163.639 25.1579 164.543 25.7058C165.474 26.2536 166.461 26.5275 167.502 26.5275C168.57 26.5275 169.57 26.2673 170.501 25.7469C171.432 25.199 172.172 24.432 172.72 23.4459C173.268 22.4324 173.542 21.2272 173.542 19.8302Z" fill="white"/>
<path d="M123.438 0C124.517 0 125.391 0.874083 125.391 1.95232V29.2593C125.391 30.3376 124.517 31.2117 123.438 31.2117H121.591C120.512 31.2117 119.638 30.3376 119.638 29.2593V1.95232C119.638 0.874082 120.512 0 121.591 0H123.438Z" fill="white"/>
</svg>
