<svg width="218" height="32" viewBox="0 0 218 32" fill="none" xmlns="http://www.w3.org/2000/svg">
<path d="M106.923 23.4352C105.082 23.7303 103.24 23.4206 101.597 22.5401C100.007 21.6878 98.7064 20.3267 97.9353 18.7073C97.7303 18.2779 97.5626 17.8317 97.4362 17.383C97.3442 17.0615 97.2701 16.7271 97.2166 16.3911C97.0068 15.0739 97.1032 13.7651 97.5025 12.5021C97.6106 12.1611 97.8847 11.8894 98.2342 11.8142C98.5097 11.755 98.7884 11.8163 99.0139 11.9821L103.289 15.1408C103.627 15.3903 103.769 15.8291 103.632 16.234C103.514 16.5833 103.199 16.8282 102.836 16.8864L101.165 17.1542C101.014 17.1783 100.929 17.343 101 17.4784C101.072 17.6138 101.156 17.7564 101.243 17.8894C102.363 19.6055 104.389 20.5057 106.405 20.1824C107.826 19.9548 109.099 19.135 109.9 17.9335C110.026 17.7448 110.217 17.6057 110.438 17.5553C110.686 17.4989 110.937 17.5512 111.141 17.6989L112.389 18.6101C112.754 18.8762 112.854 19.3859 112.615 19.7696L112.478 19.9901L112.47 20.0014C111.14 21.8567 109.17 23.0768 106.925 23.4367L106.923 23.4352Z" fill="#2750F5"/>
<path d="M113.2 17.5681C112.942 17.6095 112.684 17.5466 112.472 17.3902L108.197 14.2323C107.859 13.9828 107.718 13.5441 107.855 13.1383C107.972 12.789 108.287 12.5441 108.65 12.4859L110.322 12.2181C110.472 12.194 110.557 12.0293 110.486 11.8939C110.414 11.7585 110.331 11.6159 110.244 11.4829C109.124 9.76668 107.098 8.86663 105.081 9.18985C103.66 9.41752 102.387 10.2373 101.586 11.4388C101.46 11.6275 101.269 11.7666 101.048 11.817C100.801 11.8734 100.549 11.8211 100.346 11.6726L99.0967 10.7614C98.732 10.4953 98.6325 9.98556 98.8712 9.60186L99.0077 9.38141L99.0159 9.37008C100.347 7.51631 102.317 6.29617 104.563 5.93624C106.404 5.64114 108.246 5.95087 109.889 6.83136C111.479 7.68373 112.78 9.04477 113.551 10.6642C113.756 11.0936 113.923 11.539 114.05 11.9885C114.142 12.31 114.216 12.6444 114.27 12.9804C114.481 14.3098 114.381 15.63 113.972 16.9045C113.86 17.2554 113.564 17.509 113.2 17.5673L113.2 17.5681Z" fill="#FF7E28"/>
<path d="M86.4766 14.5843C86.4766 14.6879 86.4755 14.7898 86.4732 14.89C86.4549 15.6828 85.7737 16.2577 84.9832 16.2577H73.8415C73.9444 17.4972 74.3769 18.4682 75.139 19.1706C75.901 19.8731 76.8381 20.2243 77.9502 20.2243C79.1865 20.2243 80.1483 19.8144 80.8357 18.9946C81.2322 18.5217 81.7694 18.148 82.3854 18.148H83.8707C84.9539 18.148 85.7296 19.2098 85.15 20.1278C84.6469 20.9247 83.9975 21.6283 83.202 22.2385C81.8015 23.2922 80.0818 23.819 78.0429 23.819C76.3953 23.819 74.9124 23.4574 73.5943 22.7344C72.2968 21.9906 71.2774 20.9473 70.5359 19.6045C69.8151 18.2616 69.4547 16.7122 69.4547 14.9562C69.4547 13.1795 69.8151 11.6197 70.5359 10.2768C71.2568 8.93397 72.2659 7.90101 73.5634 7.17794C74.8609 6.45486 76.3541 6.09332 78.0429 6.09332C79.6699 6.09332 81.1219 6.44453 82.3988 7.14695C83.6963 7.84936 84.6951 8.85134 85.3954 10.1529C86.1162 11.4337 86.4766 12.9109 86.4766 14.5843ZM81.9972 13.3447C81.9766 12.2291 81.575 11.3408 80.7923 10.6797C80.0097 9.99793 79.052 9.65705 77.9193 9.65705C76.8484 9.65705 75.9422 9.9876 75.2007 10.6487C74.4799 11.2891 74.0371 12.1878 73.8724 13.3447H81.9972Z" fill="#2750F5"/>
<path d="M62.6939 9.03728C63.25 8.12827 63.9708 7.41552 64.8564 6.89904C65.3196 6.63502 65.8151 6.43849 66.343 6.30943C67.2107 6.09727 67.9457 6.85058 67.9457 7.74648V9.53308C67.9457 10.1663 67.4339 10.6797 66.8026 10.6797C65.4434 10.6797 64.4136 10.9999 63.7134 11.6403C63.0337 12.2808 62.6939 13.3964 62.6939 14.9871V21.9179C62.6939 22.8138 61.9699 23.5401 61.0768 23.5401H59.986C59.0929 23.5401 58.3689 22.8138 58.3689 21.9179V7.99439C58.3689 7.0985 59.0929 6.37223 59.986 6.37223H61.0768C61.9699 6.37223 62.6939 7.0985 62.6939 7.99439V9.03728Z" fill="#2750F5"/>
<path d="M36.5044 14.8942C36.5044 13.1588 36.8443 11.6197 37.5239 10.2768C38.2241 8.93397 39.1612 7.90101 40.3352 7.17794C41.5297 6.45486 42.8581 6.09332 44.3203 6.09332C45.5972 6.09332 46.7094 6.35156 47.6568 6.86805C48.6247 7.38453 49.397 8.0353 49.9737 8.82035V7.99438C49.9737 7.09849 50.6977 6.37222 51.5908 6.37222H52.7125C53.6056 6.37222 54.3296 7.09849 54.3296 7.99438V21.9179C54.3296 22.8138 53.6056 23.5401 52.7125 23.5401H51.5908C50.6977 23.5401 49.9737 22.8138 49.9737 21.9179V21.03C49.4176 21.8357 48.6453 22.5071 47.6568 23.0443C46.6888 23.5607 45.5663 23.819 44.2894 23.819C42.8478 23.819 41.5297 23.4471 40.3352 22.7034C39.1612 21.9596 38.2241 20.9164 37.5239 19.5735C36.8443 18.21 36.5044 16.6502 36.5044 14.8942ZM49.9737 14.9562C49.9737 13.9025 49.7678 13.0039 49.3559 12.2601C48.944 11.4957 48.3879 10.9173 47.6876 10.5247C46.9874 10.1116 46.2357 9.90496 45.4325 9.90496C44.6293 9.90496 43.8878 10.1012 43.2082 10.4937C42.5285 10.8863 41.9725 11.4647 41.54 12.2291C41.1281 12.9729 40.9221 13.8612 40.9221 14.8942C40.9221 15.9271 41.1281 16.8361 41.54 17.6212C41.9725 18.3856 42.5285 18.9744 43.2082 19.3876C43.9084 19.8008 44.6499 20.0073 45.4325 20.0073C46.2357 20.0073 46.9874 19.8111 47.6876 19.4186C48.3879 19.0054 48.944 18.4269 49.3559 17.6832C49.7678 16.9188 49.9737 16.0098 49.9737 14.9562Z" fill="#2750F5"/>
<path d="M26.558 6.12465C27.8555 6.12465 29.0088 6.41388 30.018 6.99233C31.0272 7.55014 31.8098 8.38684 32.3659 9.50244C32.9425 10.5974 33.2309 11.9196 33.2309 13.469V21.9183C33.2309 22.8141 32.5069 23.5404 31.6138 23.5404H30.523C29.6299 23.5404 28.9059 22.8141 28.9059 21.9183V14.0578C28.9059 12.6943 28.566 11.651 27.8864 10.9279C27.2068 10.1842 26.28 9.81233 25.1061 9.81233C23.9115 9.81233 22.9641 10.1842 22.2639 10.9279C21.5843 11.651 21.2444 12.6943 21.2444 14.0578V21.9183C21.2444 22.8141 20.5204 23.5404 19.6273 23.5404H18.5366C17.6435 23.5404 16.9195 22.8141 16.9195 21.9183V2.23078C16.9195 1.33489 17.6435 0.60862 18.5366 0.60862H19.6273C20.5204 0.60862 21.2444 1.33489 21.2444 2.23078V8.51079C21.8005 7.76706 22.5419 7.1886 23.4687 6.77541C24.3955 6.34157 25.4253 6.12465 26.558 6.12465Z" fill="#2750F5"/>
<path d="M7.19136 23.819C5.79089 23.819 4.53458 23.5711 3.42244 23.0752C2.3103 22.5588 1.4247 21.8667 0.765656 20.999C0.482334 20.6139 0.255792 20.2106 0.0860308 19.7889C-0.26239 18.9235 0.499889 18.117 1.43033 18.117H2.64364C3.45918 18.117 4.10679 18.7904 4.64746 19.4029C4.75899 19.5292 4.88612 19.6481 5.02886 19.7594C5.60553 20.1933 6.31606 20.4102 7.16047 20.4102C7.98428 20.4102 8.62273 20.2449 9.07582 19.9144C9.54951 19.5838 9.78636 19.1603 9.78636 18.6438C9.78636 18.086 9.49802 17.6728 8.92136 17.4043C8.36529 17.115 7.4694 16.8052 6.23368 16.4746C4.95678 16.1647 3.90643 15.8445 3.08262 15.514C2.2794 15.1834 1.57917 14.6773 0.981906 13.9955C0.40524 13.3137 0.116907 12.3944 0.116907 11.2375C0.116907 10.2872 0.384645 9.41947 0.92012 8.63441C1.47619 7.84936 2.25881 7.22958 3.26797 6.77508C4.29773 6.32058 5.50255 6.09332 6.88243 6.09332C8.92136 6.09332 10.5484 6.60981 11.7635 7.64277C12.5492 8.29732 13.1067 9.10302 13.436 10.0599C13.7423 10.9497 12.9733 11.7643 12.0348 11.7643H11.1087C10.2723 11.7643 9.63372 11.0421 9.0668 10.4253C8.97724 10.3278 8.87728 10.237 8.7669 10.1529C8.27261 9.73969 7.60327 9.53309 6.75886 9.53309C5.97624 9.53309 5.36869 9.67771 4.93619 9.96694C4.52428 10.2562 4.31833 10.659 4.31833 11.1755C4.31833 11.754 4.60666 12.1981 5.18333 12.508C5.75999 12.7973 6.65589 13.0968 7.871 13.4067C9.10672 13.7166 10.1262 14.0368 10.9294 14.3674C11.7326 14.6979 12.4225 15.2144 12.9992 15.9168C13.5965 16.5986 13.9054 17.5076 13.926 18.6438C13.926 19.6355 13.648 20.5238 13.0919 21.3089C12.5564 22.0939 11.7738 22.7137 10.744 23.1682C9.73487 23.6021 8.55065 23.819 7.19136 23.819Z" fill="#2750F5"/>
<path d="M146.095 14.9561C146.095 13.1794 146.455 11.63 147.176 10.3078C147.897 8.96491 148.896 7.93195 150.173 7.20887C151.45 6.46514 152.912 6.09327 154.56 6.09327C156.681 6.09327 158.432 6.63041 159.811 7.70469C160.747 8.40853 161.476 9.30597 161.998 10.397C162.41 11.2593 161.701 12.1671 160.748 12.1671H159.016C158.384 12.1671 157.853 11.7381 157.488 11.2204C157.271 10.9118 157.005 10.6489 156.691 10.4317C156.115 9.99787 155.394 9.78095 154.529 9.78095C153.293 9.78095 152.315 10.2355 151.594 11.1445C150.873 12.0328 150.513 13.3034 150.513 14.9561C150.513 16.5882 150.873 17.8587 151.594 18.7677C152.315 19.6561 153.293 20.1003 154.529 20.1003C155.884 20.1003 156.874 19.6301 157.501 18.6898C157.85 18.1665 158.38 17.7451 159.007 17.7451H160.733C161.691 17.7451 162.399 18.6611 161.973 19.5218C161.452 20.5718 160.732 21.4568 159.811 22.1765C158.411 23.2715 156.66 23.8189 154.56 23.8189C152.912 23.8189 151.45 23.4574 150.173 22.7343C148.896 21.9906 147.897 20.9576 147.176 19.6354C146.455 18.2926 146.095 16.7328 146.095 14.9561Z" fill="#FF7E28"/>
<path d="M140.576 5.13788C139.814 5.13788 139.175 4.90029 138.66 4.42513C138.166 3.92931 137.919 3.31986 137.919 2.59678C137.919 1.87371 138.166 1.27459 138.66 0.799426C139.175 0.303603 139.814 0.0556922 140.576 0.0556922C141.338 0.0556922 141.966 0.303603 142.46 0.799426C142.975 1.27459 143.233 1.87371 143.233 2.59678C143.233 3.31986 142.975 3.92931 142.46 4.42513C141.966 4.90029 141.338 5.13788 140.576 5.13788ZM141.239 6.37206C142.05 6.37206 142.707 7.03131 142.707 7.84452V22.0675C142.707 22.8807 142.05 23.5399 141.239 23.5399H139.85C139.04 23.5399 138.382 22.8807 138.382 22.0675V7.84452C138.382 7.03131 139.04 6.37206 139.85 6.37206H141.239Z" fill="#FF7E28"/>
<path d="M124.541 6.09327C125.818 6.09327 126.941 6.35151 127.909 6.86799C128.877 7.36381 129.639 8.01458 130.195 8.82029V7.84463C130.195 7.03141 130.852 6.37217 131.663 6.37217H133.083C133.893 6.37217 134.551 7.03141 134.551 7.84463V23.664C134.551 25.2547 134.231 26.6699 133.593 27.9095C132.954 29.1697 131.997 30.1613 130.72 30.8844C129.443 31.6281 127.898 32 126.086 32C123.656 32 121.658 31.4319 120.093 30.2956C118.994 29.4871 118.233 28.4693 117.812 27.2423C117.528 26.4158 118.226 25.6473 119.097 25.6473H120.658C121.311 25.6473 121.855 26.1088 122.244 26.6356C122.493 26.9732 122.816 27.2635 123.213 27.5066C123.975 27.9818 124.891 28.2194 125.962 28.2194C127.219 28.2194 128.238 27.8372 129.021 27.0728C129.803 26.329 130.195 25.1928 130.195 23.664V20.9989C129.639 21.8047 128.866 22.4761 127.878 23.0132C126.91 23.5504 125.798 23.8189 124.541 23.8189C123.1 23.8189 121.782 23.4471 120.587 22.7033C119.392 21.9596 118.445 20.9163 117.745 19.5735C117.065 18.2099 116.725 16.6502 116.725 14.8941C116.725 13.1587 117.065 11.6196 117.745 10.2768C118.445 8.93392 119.382 7.90096 120.556 7.17788C121.751 6.45481 123.079 6.09327 124.541 6.09327ZM130.195 14.9561C130.195 13.9025 129.989 13.0038 129.577 12.2601C129.165 11.4957 128.609 10.9172 127.909 10.5247C127.208 10.1115 126.457 9.90491 125.653 9.90491C124.85 9.90491 124.109 10.1012 123.429 10.4937C122.749 10.8862 122.193 11.4647 121.761 12.2291C121.349 12.9728 121.143 13.8612 121.143 14.8941C121.143 15.9271 121.349 16.8361 121.761 17.6211C122.193 18.3855 122.749 18.9743 123.429 19.3875C124.129 19.8007 124.871 20.0073 125.653 20.0073C126.457 20.0073 127.208 19.811 127.909 19.4185C128.609 19.0053 129.165 18.4269 129.577 17.6831C129.989 16.9187 130.195 16.0097 130.195 14.9561Z" fill="#FF7E28"/>
<path d="M92.524 0C93.3346 0 93.9918 0.659241 93.9918 1.47246V22.0677C93.9918 22.8809 93.3346 23.5401 92.524 23.5401H91.1347C90.324 23.5401 89.6668 22.8809 89.6668 22.0677V1.47245C89.6668 0.65924 90.324 0 91.1347 0H92.524Z" fill="#FF7E28"/>
<path d="M167.448 8.70566C167.448 5.58687 169.976 3.05859 173.095 3.05859H215.212C216.252 3.05859 217.095 3.90135 217.095 4.94095V22.8233C217.095 25.9421 214.566 28.4704 211.448 28.4704H169.33C168.29 28.4704 167.448 27.6276 167.448 26.588V8.70566Z" fill="#2750F5"/>
<path d="M178.033 21.3996C177.353 21.3996 176.749 21.2513 176.222 20.9549C175.706 20.6584 175.299 20.2466 175.003 19.7196C174.706 19.1815 174.558 18.5721 174.558 17.8913V12.5219H177.226V17.529C177.226 18.0011 177.369 18.3855 177.655 18.6819C177.951 18.9674 178.335 19.1102 178.808 19.1102C179.148 19.1102 179.45 19.0498 179.713 18.929C179.977 18.8082 180.197 18.638 180.372 18.4184V12.5219H183.041V21.2349H180.372V20.6419C179.713 21.147 178.934 21.3996 178.033 21.3996ZM184.693 21.2349V12.5219H187.361V13.1149C188.02 12.6098 188.8 12.3572 189.7 12.3572C190.381 12.3572 190.979 12.5055 191.495 12.8019C192.022 13.0984 192.434 13.5102 192.731 14.0372C193.027 14.5643 193.175 15.1737 193.175 15.8655V21.2349H190.507V16.2278C190.507 15.7447 190.364 15.3604 190.079 15.0749C189.793 14.7894 189.409 14.6466 188.926 14.6466C188.586 14.6466 188.284 14.707 188.02 14.8278C187.768 14.9486 187.548 15.1188 187.361 15.3384V21.2349H184.693ZM194.762 21.2349V12.5219H197.43V21.2349H194.762ZM196.096 11.7149C195.69 11.7149 195.344 11.5721 195.058 11.2866C194.773 11.0011 194.63 10.6553 194.63 10.249C194.63 9.84271 194.773 9.49682 195.058 9.21133C195.344 8.92584 195.69 8.7831 196.096 8.7831C196.502 8.7831 196.848 8.92584 197.134 9.21133C197.419 9.49682 197.562 9.84271 197.562 10.249C197.562 10.6553 197.419 11.0011 197.134 11.2866C196.848 11.5721 196.502 11.7149 196.096 11.7149ZM200.456 21.2349V14.7455H198.546V12.5219H200.456V11.9949C200.456 10.9627 200.758 10.1776 201.362 9.63957C201.977 9.09055 202.855 8.81604 203.997 8.81604C204.228 8.81604 204.475 8.83251 204.738 8.86545C205.013 8.88741 205.238 8.92584 205.414 8.98075V11.1878C205.205 11.1439 205.018 11.1164 204.854 11.1055C204.7 11.0835 204.535 11.0725 204.36 11.0725C203.953 11.0725 203.646 11.1549 203.437 11.3196C203.229 11.4733 203.124 11.7149 203.124 12.0443V12.5219H205.414V14.7455H203.124V21.2349H200.456ZM206.536 21.2349V12.5219H209.204V21.2349H206.536ZM207.87 11.7149C207.464 11.7149 207.118 11.5721 206.832 11.2866C206.547 11.0011 206.404 10.6553 206.404 10.249C206.404 9.84271 206.547 9.49682 206.832 9.21133C207.118 8.92584 207.464 8.7831 207.87 8.7831C208.276 8.7831 208.622 8.92584 208.908 9.21133C209.193 9.49682 209.336 9.84271 209.336 10.249C209.336 10.6553 209.193 11.0011 208.908 11.2866C208.622 11.5721 208.276 11.7149 207.87 11.7149Z" fill="white"/>
</svg>
