<svg width="163" height="203" viewBox="0 0 163 203" fill="none" xmlns="http://www.w3.org/2000/svg">
<path d="M104.011 137.58V176.022L59.7975 201.723V162.848L104.011 137.58Z" fill="#2750F5"/>
<path d="M104.011 137.58L59.7975 162.848L14.5001 137.58L58.0636 110.584L104.011 137.58Z" fill="#4A6EFF"/>
<path d="M59.7975 162.848V201.723L14.5001 176.022V137.58L59.7975 162.848Z" fill="#5778FF"/>
<path d="M104.011 137.58V176.022L59.7975 201.723M104.011 137.58L59.7975 162.848M104.011 137.58L58.0636 110.584L14.5001 137.58M59.7975 201.723V162.848M59.7975 201.723L14.5001 176.022V137.58M59.7975 162.848L14.5001 137.58" stroke="#D6DEFF"/>
<path d="M61.5 61.9489V88.1006L31.3692 105.584V79.1385L61.5 61.9489Z" fill="#2750F5"/>
<path d="M61.5 61.9489L31.3692 79.1385L0.499998 61.9489L30.1876 43.584L61.5 61.9489Z" fill="#4A6EFF"/>
<path d="M31.3692 79.1385V105.584L0.499998 88.1006V61.9489L31.3692 79.1385Z" fill="#5778FF"/>
<path d="M61.5 61.9489V88.1006L31.3692 105.584M61.5 61.9489L31.3692 79.1385M61.5 61.9489L30.1876 43.584L0.499998 61.9489M31.3692 105.584V79.1385M31.3692 105.584L0.499998 88.1006V61.9489M31.3692 79.1385L0.499998 61.9489" stroke="#D6DEFF"/>
<path d="M107.5 17.1717V40.7925L134.667 56.584V32.6977L107.5 17.1717Z" fill="#FFB73A"/>
<path d="M107.5 17.1717L134.667 32.6977L162.5 17.1717L135.732 0.583984L107.5 17.1717Z" fill="#FDC443"/>
<path d="M134.667 32.6977V56.584L162.5 40.7925V17.1717L134.667 32.6977Z" fill="#FF7513"/>
<path d="M107.5 17.1717V40.7925L134.667 56.584M107.5 17.1717L134.667 32.6977M107.5 17.1717L135.732 0.583984L162.5 17.1717M134.667 56.584V32.6977M134.667 56.584L162.5 40.7925V17.1717M134.667 32.6977L162.5 17.1717" stroke="white"/>
</svg>
