<svg width="204" height="262" viewBox="0 0 204 262" fill="none" xmlns="http://www.w3.org/2000/svg">
<path d="M148.5 130.172V153.793L175.667 169.584V145.698L148.5 130.172Z" fill="#FFB73A"/>
<path d="M148.5 130.172L175.667 145.698L203.5 130.172L176.732 113.584L148.5 130.172Z" fill="#FDC443"/>
<path d="M175.667 145.698V169.584L203.5 153.793V130.172L175.667 145.698Z" fill="#FF7513"/>
<path d="M148.5 130.172V153.793L175.667 169.584M148.5 130.172L175.667 145.698M148.5 130.172L176.732 113.584L203.5 130.172M175.667 169.584V145.698M175.667 169.584L203.5 153.793V130.172M175.667 145.698L203.5 130.172" stroke="white"/>
<path d="M90.0112 196.58V235.023L45.7975 260.723V221.849L90.0112 196.58Z" fill="#2750F5"/>
<path d="M90.0112 196.58L45.7975 221.849L0.500061 196.58L44.0636 169.584L90.0112 196.58Z" fill="#4A6EFF"/>
<path d="M45.7975 221.849V260.723L0.500061 235.023V196.58L45.7975 221.849Z" fill="#5778FF"/>
<path d="M90.0112 196.58V235.023L45.7975 260.723M90.0112 196.58L45.7975 221.849M90.0112 196.58L44.0636 169.584L0.500061 196.58M45.7975 260.723V221.849M45.7975 260.723L0.500061 235.023V196.58M45.7975 221.849L0.500061 196.58" stroke="#D6DEFF"/>
<path d="M203.5 15.0987V35.7669L179.791 49.5845V28.684L203.5 15.0987Z" fill="#2750F5"/>
<path d="M203.5 15.0987L179.791 28.684L155.5 15.0987L178.861 0.584473L203.5 15.0987Z" fill="#4A6EFF"/>
<path d="M179.791 28.684V49.5845L155.5 35.7669V15.0987L179.791 28.684Z" fill="#5778FF"/>
<path d="M203.5 15.0987V35.7669L179.791 49.5845M203.5 15.0987L179.791 28.684M203.5 15.0987L178.861 0.584473L155.5 15.0987M179.791 49.5845V28.684M179.791 49.5845L155.5 35.7669V15.0987M179.791 28.684L155.5 15.0987" stroke="#D6DEFF"/>
</svg>
