<svg width="157" height="45" viewBox="0 0 157 45" fill="none" xmlns="http://www.w3.org/2000/svg">
<g filter="url(#filter0_ddiii_957_28)">
<g clip-path="url(#clip0_957_28)">
<rect x="2.5" width="40" height="40" rx="10" fill="#DD2590"/>
<rect width="40" height="40" transform="translate(2.5)" fill="url(#paint0_linear_957_28)"/>
<g filter="url(#filter1_d_957_28)">
<path fill-rule="evenodd" clip-rule="evenodd" d="M17.6091 22.9499L20.4646 25.8054C22.2024 27.5432 25.0198 27.5432 26.7575 25.8054C27.3306 25.2323 27.7147 24.5418 27.9097 23.8113L29.9039 25.8054C31.6416 27.5432 34.459 27.5432 36.1967 25.8054C37.9344 24.0677 37.9344 21.2503 36.1967 19.5126L29.9039 13.2198C28.1662 11.4821 25.3488 11.4821 23.6111 13.2198C23.038 13.7929 22.6539 14.4834 22.4588 15.2139L20.4646 13.2198C18.7269 11.4821 15.9095 11.4821 14.1718 13.2198L8.99335 18.3983C7.00222 20.3894 7.00222 23.6177 8.99335 25.6088C10.9845 27.5999 14.2127 27.5999 16.2039 25.6088C16.9576 24.855 17.426 23.924 17.6091 22.9499ZM18.8914 14.793C18.0226 13.9241 16.6139 13.9241 15.745 14.793C14.8765 15.6615 14.8762 17.0693 15.7439 17.9383L22.0379 24.2322C22.9067 25.1011 24.3154 25.1011 25.1843 24.2322C26.0527 23.3638 26.0531 21.9562 25.1857 21.0872L18.8914 14.793ZM14.6307 19.9715L12.5986 17.9394L10.5666 19.9715C9.44428 21.0937 9.44428 22.9133 10.5666 24.0356C11.6888 25.1579 13.5084 25.1579 14.6307 24.0356C15.7529 22.9133 15.7529 21.0937 14.6307 19.9715ZM25.1824 17.9376C24.3154 17.0686 24.316 15.6612 25.1843 14.793C26.0531 13.9241 27.4618 13.9241 28.3307 14.793L34.6235 21.0858C35.4924 21.9547 35.4924 23.3634 34.6235 24.2322C33.7547 25.1011 32.346 25.1011 31.4771 24.2322L25.1824 17.9376Z" fill="url(#paint1_linear_957_28)"/>
</g>
</g>
<rect x="3.33333" y="0.833333" width="38.3333" height="38.3333" rx="9.16667" stroke="url(#paint2_linear_957_28)" stroke-width="1.66667"/>
</g>
<path d="M56.2942 27.5H52.5V9.61665H56.2942L61.6108 21.29L66.9517 9.61665H70.7942V27.5H67V23.7542C67 19.8875 67 19.0417 67.1933 17.7125L63.3992 25.8333H59.8225L56.0525 17.7125C56.27 19.0417 56.2942 20.54 56.2942 22.4975V27.5Z" fill="#0A0D12"/>
<path d="M77.709 27.8142C75.1474 27.8142 73.5524 26.3158 73.5524 23.9475C73.5524 21.7242 75.1232 20.3467 78.0232 20.1292L81.4065 19.8633V19.67C81.4065 18.4858 80.6815 17.8575 79.3524 17.8575C77.7815 17.8575 76.9357 18.4617 76.9357 19.5492H73.8424C73.8424 16.8183 76.0899 15.03 79.5457 15.03C83.0499 15.03 85.0315 16.9875 85.0315 20.4433V27.5H81.7449L81.5032 25.905C81.1165 27.0167 79.5215 27.8142 77.709 27.8142ZM79.014 25.0592C80.4399 25.0592 81.4307 24.3583 81.4307 22.9808V22.3283L79.5457 22.4975C77.9265 22.6425 77.3465 23.005 77.3465 23.7783C77.3465 24.6483 77.8782 25.0592 79.014 25.0592Z" fill="#0A0D12"/>
<path d="M87.0967 21.2408C87.0967 17.5675 89.4892 15.0058 92.8967 15.0058C94.54 15.0058 95.845 15.6342 96.4975 16.625L96.6908 15.4167H100.195V26.7267C100.195 31.0525 97.7058 33.6625 93.5733 33.6625C89.8758 33.6625 87.3867 31.56 87.0483 28.1283H90.8183C90.8908 29.4817 91.9058 30.2792 93.5492 30.2792C95.3375 30.2792 96.4733 29.2158 96.4733 27.5V25.9292C95.7483 26.7992 94.395 27.355 92.8242 27.355C89.4408 27.355 87.0967 24.8658 87.0967 21.2408ZM90.8425 21.1442C90.8425 22.8842 92.0025 24.1167 93.6458 24.1167C95.3375 24.1167 96.4733 22.9325 96.4733 21.1442C96.4733 19.38 95.3375 18.2442 93.6217 18.2442C91.9783 18.2442 90.8425 19.4283 90.8425 21.1442Z" fill="#0A0D12"/>
<path d="M106.715 27.5H102.994V15.4167H106.498L106.74 16.6733C107.489 15.6342 108.866 15.03 110.437 15.03C113.313 15.03 114.98 16.8667 114.98 20.0325V27.5H111.259V20.9267C111.259 19.4042 110.413 18.4133 109.132 18.4133C107.658 18.4133 106.715 19.38 106.715 20.8783V27.5Z" fill="#0A0D12"/>
<path d="M116.997 21.4342C116.997 17.6158 119.8 15.0542 123.667 15.0542C127.51 15.0542 130.313 17.6158 130.313 21.4342C130.313 25.2525 127.51 27.79 123.667 27.79C119.8 27.79 116.997 25.2525 116.997 21.4342ZM120.743 21.41C120.743 23.2467 121.927 24.455 123.667 24.455C125.383 24.455 126.567 23.2467 126.567 21.41C126.567 19.5975 125.383 18.3892 123.667 18.3892C121.927 18.3892 120.743 19.5975 120.743 21.41Z" fill="#0A0D12"/>
<path d="M136.192 27.5H132.471V9.27832H136.192V27.5Z" fill="#0A0D12"/>
<path d="M140.821 13.5317C139.637 13.5317 138.694 12.5892 138.694 11.405C138.694 10.2208 139.637 9.30249 140.821 9.30249C141.981 9.30249 142.923 10.2208 142.923 11.405C142.923 12.5892 141.981 13.5317 140.821 13.5317ZM138.984 27.5V15.4167H142.706V27.5H138.984Z" fill="#0A0D12"/>
<path d="M149.147 27.8142C146.585 27.8142 144.99 26.3158 144.99 23.9475C144.99 21.7242 146.561 20.3467 149.461 20.1292L152.845 19.8633V19.67C152.845 18.4858 152.12 17.8575 150.79 17.8575C149.22 17.8575 148.374 18.4617 148.374 19.5492H145.28C145.28 16.8183 147.528 15.03 150.984 15.03C154.488 15.03 156.47 16.9875 156.47 20.4433V27.5H153.183L152.941 25.905C152.555 27.0167 150.96 27.8142 149.147 27.8142ZM150.452 25.0592C151.878 25.0592 152.869 24.3583 152.869 22.9808V22.3283L150.984 22.4975C149.365 22.6425 148.785 23.005 148.785 23.7783C148.785 24.6483 149.316 25.0592 150.452 25.0592Z" fill="#0A0D12"/>
<defs>
<filter id="filter0_ddiii_957_28" x="5.96046e-08" y="-2.5" width="45" height="47.5" filterUnits="userSpaceOnUse" color-interpolation-filters="sRGB">
<feFlood flood-opacity="0" result="BackgroundImageFix"/>
<feColorMatrix in="SourceAlpha" type="matrix" values="0 0 0 0 0 0 0 0 0 0 0 0 0 0 0 0 0 0 127 0" result="hardAlpha"/>
<feOffset dy="0.833333"/>
<feGaussianBlur stdDeviation="0.416667"/>
<feComposite in2="hardAlpha" operator="out"/>
<feColorMatrix type="matrix" values="0 0 0 0 0.162923 0 0 0 0 0.162923 0 0 0 0 0.162923 0 0 0 0.08 0"/>
<feBlend mode="normal" in2="BackgroundImageFix" result="effect1_dropShadow_957_28"/>
<feColorMatrix in="SourceAlpha" type="matrix" values="0 0 0 0 0 0 0 0 0 0 0 0 0 0 0 0 0 0 127 0" result="hardAlpha"/>
<feMorphology radius="0.833333" operator="erode" in="SourceAlpha" result="effect2_dropShadow_957_28"/>
<feOffset dy="2.5"/>
<feGaussianBlur stdDeviation="1.66667"/>
<feComposite in2="hardAlpha" operator="out"/>
<feColorMatrix type="matrix" values="0 0 0 0 0.164706 0 0 0 0 0.164706 0 0 0 0 0.164706 0 0 0 0.14 0"/>
<feBlend mode="normal" in2="effect1_dropShadow_957_28" result="effect2_dropShadow_957_28"/>
<feBlend mode="normal" in="SourceGraphic" in2="effect2_dropShadow_957_28" result="shape"/>
<feColorMatrix in="SourceAlpha" type="matrix" values="0 0 0 0 0 0 0 0 0 0 0 0 0 0 0 0 0 0 127 0" result="hardAlpha"/>
<feOffset dy="-2.5"/>
<feGaussianBlur stdDeviation="1.25"/>
<feComposite in2="hardAlpha" operator="arithmetic" k2="-1" k3="1"/>
<feColorMatrix type="matrix" values="0 0 0 0 0 0 0 0 0 0 0 0 0 0 0 0 0 0 0.1 0"/>
<feBlend mode="normal" in2="shape" result="effect3_innerShadow_957_28"/>
<feColorMatrix in="SourceAlpha" type="matrix" values="0 0 0 0 0 0 0 0 0 0 0 0 0 0 0 0 0 0 127 0" result="hardAlpha"/>
<feOffset dy="2.5"/>
<feGaussianBlur stdDeviation="1.25"/>
<feComposite in2="hardAlpha" operator="arithmetic" k2="-1" k3="1"/>
<feColorMatrix type="matrix" values="0 0 0 0 1 0 0 0 0 1 0 0 0 0 1 0 0 0 0.1 0"/>
<feBlend mode="normal" in2="effect3_innerShadow_957_28" result="effect4_innerShadow_957_28"/>
<feColorMatrix in="SourceAlpha" type="matrix" values="0 0 0 0 0 0 0 0 0 0 0 0 0 0 0 0 0 0 127 0" result="hardAlpha"/>
<feMorphology radius="0.833333" operator="erode" in="SourceAlpha" result="effect5_innerShadow_957_28"/>
<feOffset/>
<feComposite in2="hardAlpha" operator="arithmetic" k2="-1" k3="1"/>
<feColorMatrix type="matrix" values="0 0 0 0 0 0 0 0 0 0 0 0 0 0 0 0 0 0 0.2 0"/>
<feBlend mode="normal" in2="effect4_innerShadow_957_28" result="effect5_innerShadow_957_28"/>
</filter>
<filter id="filter1_d_957_28" x="5" y="4.375" width="35" height="35" filterUnits="userSpaceOnUse" color-interpolation-filters="sRGB">
<feFlood flood-opacity="0" result="BackgroundImageFix"/>
<feColorMatrix in="SourceAlpha" type="matrix" values="0 0 0 0 0 0 0 0 0 0 0 0 0 0 0 0 0 0 127 0" result="hardAlpha"/>
<feMorphology radius="1.25" operator="erode" in="SourceAlpha" result="effect1_dropShadow_957_28"/>
<feOffset dy="1.875"/>
<feGaussianBlur stdDeviation="1.875"/>
<feComposite in2="hardAlpha" operator="out"/>
<feColorMatrix type="matrix" values="0 0 0 0 0.141176 0 0 0 0 0.141176 0 0 0 0 0.141176 0 0 0 0.1 0"/>
<feBlend mode="normal" in2="BackgroundImageFix" result="effect1_dropShadow_957_28"/>
<feBlend mode="normal" in="SourceGraphic" in2="effect1_dropShadow_957_28" result="shape"/>
</filter>
<linearGradient id="paint0_linear_957_28" x1="20" y1="4.96706e-07" x2="21.6667" y2="40" gradientUnits="userSpaceOnUse">
<stop stop-color="white" stop-opacity="0"/>
<stop offset="1" stop-color="white" stop-opacity="0.12"/>
</linearGradient>
<linearGradient id="paint1_linear_957_28" x1="22.5" y1="11.9165" x2="22.5" y2="27.1087" gradientUnits="userSpaceOnUse">
<stop stop-color="white" stop-opacity="0.8"/>
<stop offset="1" stop-color="white" stop-opacity="0.5"/>
</linearGradient>
<linearGradient id="paint2_linear_957_28" x1="22.5" y1="0" x2="22.5" y2="40" gradientUnits="userSpaceOnUse">
<stop stop-color="white" stop-opacity="0.12"/>
<stop offset="1" stop-color="white" stop-opacity="0"/>
</linearGradient>
<clipPath id="clip0_957_28">
<rect x="2.5" width="40" height="40" rx="10" fill="white"/>
</clipPath>
</defs>
</svg>
