<svg width="177" height="45" viewBox="0 0 177 45" fill="none" xmlns="http://www.w3.org/2000/svg">
<g filter="url(#filter0_ddiii_957_102)">
<g clip-path="url(#clip0_957_102)">
<rect x="2.5" width="40" height="40" rx="10" fill="#5925DC"/>
<rect width="40" height="40" transform="translate(2.5)" fill="url(#paint0_linear_957_102)"/>
<g filter="url(#filter1_d_957_102)">
<path opacity="0.6" fill-rule="evenodd" clip-rule="evenodd" d="M15.9028 8.125C12.9879 8.125 10.625 10.4879 10.625 13.4028V26.5972C10.625 29.5121 12.9879 31.875 15.9028 31.875H29.0972C32.0121 31.875 34.375 29.5121 34.375 26.5972V13.4028C34.375 10.4879 32.0121 8.125 29.0972 8.125H15.9028ZM15.9028 11.4236C14.8097 11.4236 13.9236 12.3097 13.9236 13.4028V26.5972C13.9236 27.6903 14.8097 28.5764 15.9028 28.5764H20.5208C21.6139 28.5764 22.5 27.6903 22.5 26.5972V13.4028C22.5 12.3097 21.6139 11.4236 20.5208 11.4236H15.9028Z" fill="url(#paint1_linear_957_102)"/>
</g>
</g>
<rect x="3.33333" y="0.833333" width="38.3333" height="38.3333" rx="9.16667" stroke="url(#paint2_linear_957_102)" stroke-width="1.66667"/>
</g>
<path d="M52.5 27.5V10H58.975C60.375 10 61.5333 10.2333 62.45 10.7C63.3667 11.1667 64.05 11.8083 64.5 12.625C64.95 13.4417 65.175 14.3583 65.175 15.375C65.175 16.3417 64.9583 17.2333 64.525 18.05C64.0917 18.85 63.4167 19.5 62.5 20C61.5833 20.4833 60.4083 20.725 58.975 20.725H55.7V27.5H52.5ZM55.7 18.125H58.775C59.8917 18.125 60.6917 17.8833 61.175 17.4C61.675 16.9 61.925 16.225 61.925 15.375C61.925 14.5083 61.675 13.8333 61.175 13.35C60.6917 12.85 59.8917 12.6 58.775 12.6H55.7V18.125Z" fill="#0A0D12"/>
<path d="M71.4258 27.8C70.2258 27.8 69.1424 27.525 68.1758 26.975C67.2258 26.425 66.4674 25.6667 65.9008 24.7C65.3508 23.7167 65.0758 22.5833 65.0758 21.3C65.0758 20.0167 65.3591 18.8917 65.9258 17.925C66.4924 16.9417 67.2508 16.175 68.2008 15.625C69.1674 15.075 70.2508 14.8 71.4508 14.8C72.6341 14.8 73.7008 15.075 74.6508 15.625C75.6174 16.175 76.3758 16.9417 76.9258 17.925C77.4924 18.8917 77.7758 20.0167 77.7758 21.3C77.7758 22.5833 77.4924 23.7167 76.9258 24.7C76.3758 25.6667 75.6174 26.425 74.6508 26.975C73.6841 27.525 72.6091 27.8 71.4258 27.8ZM71.4258 25.025C72.2591 25.025 72.9841 24.7167 73.6008 24.1C74.2174 23.4667 74.5258 22.5333 74.5258 21.3C74.5258 20.0667 74.2174 19.1417 73.6008 18.525C72.9841 17.8917 72.2674 17.575 71.4508 17.575C70.6008 17.575 69.8674 17.8917 69.2508 18.525C68.6508 19.1417 68.3508 20.0667 68.3508 21.3C68.3508 22.5333 68.6508 23.4667 69.2508 24.1C69.8674 24.7167 70.5924 25.025 71.4258 25.025Z" fill="#0A0D12"/>
<path d="M81.1225 27.5L77.4975 15.1H80.6725L82.8225 24.025L85.3225 15.1H88.8725L91.3725 24.025L93.5475 15.1H96.7225L93.0725 27.5H89.7475L87.0975 18.225L84.4475 27.5H81.1225Z" fill="#0A0D12"/>
<path d="M102.827 27.8C101.577 27.8 100.469 27.5333 99.502 27C98.5353 26.4667 97.777 25.7167 97.2269 24.75C96.6769 23.7833 96.402 22.6667 96.402 21.4C96.402 20.1167 96.6686 18.975 97.202 17.975C97.7519 16.975 98.5019 16.2 99.452 15.65C100.419 15.0833 101.552 14.8 102.852 14.8C104.069 14.8 105.144 15.0667 106.077 15.6C107.01 16.1333 107.735 16.8667 108.252 17.8C108.785 18.7167 109.052 19.7417 109.052 20.875C109.052 21.0583 109.044 21.25 109.027 21.45C109.027 21.65 109.019 21.8583 109.002 22.075H99.577C99.6436 23.0417 99.9769 23.8 100.577 24.35C101.194 24.9 101.935 25.175 102.802 25.175C103.452 25.175 103.994 25.0333 104.427 24.75C104.877 24.45 105.21 24.0667 105.427 23.6H108.677C108.444 24.3833 108.052 25.1 107.502 25.75C106.969 26.3833 106.302 26.8833 105.502 27.25C104.719 27.6167 103.827 27.8 102.827 27.8ZM102.852 17.4C102.069 17.4 101.377 17.625 100.777 18.075C100.177 18.5083 99.7936 19.175 99.6269 20.075H105.802C105.752 19.2583 105.452 18.6083 104.902 18.125C104.352 17.6417 103.669 17.4 102.852 17.4Z" fill="#0A0D12"/>
<path d="M110.243 27.5V15.1H113.093L113.393 17.425C113.843 16.625 114.452 15.9917 115.218 15.525C116.002 15.0417 116.918 14.8 117.968 14.8V18.175H117.068C116.368 18.175 115.743 18.2833 115.193 18.5C114.643 18.7167 114.21 19.0917 113.893 19.625C113.593 20.1583 113.443 20.9 113.443 21.85V27.5H110.243Z" fill="#0A0D12"/>
<path d="M123.78 27.8C122.68 27.8 121.714 27.625 120.88 27.275C120.047 26.9083 119.38 26.4083 118.88 25.775C118.38 25.1417 118.08 24.4083 117.98 23.575H121.205C121.305 24.0583 121.572 24.475 122.005 24.825C122.455 25.1583 123.03 25.325 123.73 25.325C124.43 25.325 124.939 25.1833 125.255 24.9C125.589 24.6167 125.755 24.2917 125.755 23.925C125.755 23.3917 125.522 23.0333 125.055 22.85C124.589 22.65 123.939 22.4583 123.105 22.275C122.572 22.1583 122.03 22.0167 121.48 21.85C120.93 21.6833 120.422 21.475 119.955 21.225C119.505 20.9583 119.139 20.625 118.855 20.225C118.572 19.8083 118.43 19.3 118.43 18.7C118.43 17.6 118.864 16.675 119.73 15.925C120.614 15.175 121.847 14.8 123.43 14.8C124.897 14.8 126.064 15.1417 126.93 15.825C127.814 16.5083 128.339 17.45 128.505 18.65H125.48C125.297 17.7333 124.605 17.275 123.405 17.275C122.805 17.275 122.339 17.3917 122.005 17.625C121.689 17.8583 121.53 18.15 121.53 18.5C121.53 18.8667 121.772 19.1583 122.255 19.375C122.739 19.5917 123.38 19.7917 124.18 19.975C125.047 20.175 125.839 20.4 126.555 20.65C127.289 20.8833 127.872 21.2417 128.305 21.725C128.739 22.1917 128.955 22.8667 128.955 23.75C128.972 24.5167 128.772 25.2083 128.355 25.825C127.939 26.4417 127.339 26.925 126.555 27.275C125.772 27.625 124.847 27.8 123.78 27.8Z" fill="#0A0D12"/>
<path d="M134.94 27.8C133.39 27.8 132.19 27.3167 131.34 26.35C130.507 25.3833 130.09 23.9667 130.09 22.1V15.1H133.265V21.8C133.265 22.8667 133.482 23.6833 133.915 24.25C134.349 24.8167 135.032 25.1 135.965 25.1C136.849 25.1 137.574 24.7833 138.14 24.15C138.724 23.5167 139.015 22.6333 139.015 21.5V15.1H142.215V27.5H139.39L139.14 25.4C138.757 26.1333 138.199 26.7167 137.465 27.15C136.749 27.5833 135.907 27.8 134.94 27.8Z" fill="#0A0D12"/>
<path d="M144 27.5V15.1H146.85L147.15 17.425C147.6 16.625 148.209 15.9917 148.975 15.525C149.759 15.0417 150.675 14.8 151.725 14.8V18.175H150.825C150.125 18.175 149.5 18.2833 148.95 18.5C148.4 18.7167 147.967 19.0917 147.65 19.625C147.35 20.1583 147.2 20.9 147.2 21.85V27.5H144Z" fill="#0A0D12"/>
<path d="M157.369 23.8C156.769 23.8 156.211 23.7333 155.694 23.6L154.769 24.525C155.053 24.675 155.436 24.8 155.919 24.9C156.403 25 157.186 25.1 158.269 25.2C159.919 25.35 161.119 25.7417 161.869 26.375C162.619 27.0083 162.994 27.8833 162.994 29C162.994 29.7333 162.794 30.425 162.394 31.075C161.994 31.7417 161.378 32.275 160.544 32.675C159.711 33.0917 158.644 33.3 157.344 33.3C155.578 33.3 154.153 32.9667 153.069 32.3C151.986 31.65 151.444 30.6667 151.444 29.35C151.444 28.2333 151.986 27.2667 153.069 26.45C152.736 26.3 152.444 26.1417 152.194 25.975C151.961 25.8083 151.753 25.6333 151.569 25.45V24.875L153.744 22.575C152.778 21.725 152.294 20.6333 152.294 19.3C152.294 18.4667 152.494 17.7083 152.894 17.025C153.311 16.3417 153.894 15.8 154.644 15.4C155.394 15 156.303 14.8 157.369 14.8C158.069 14.8 158.719 14.9 159.319 15.1H164.019V17.05L161.894 17.2C162.228 17.8333 162.394 18.5333 162.394 19.3C162.394 20.1333 162.194 20.8917 161.794 21.575C161.394 22.2583 160.811 22.8 160.044 23.2C159.294 23.6 158.403 23.8 157.369 23.8ZM157.369 21.35C158.019 21.35 158.553 21.175 158.969 20.825C159.403 20.475 159.619 19.975 159.619 19.325C159.619 18.675 159.403 18.175 158.969 17.825C158.553 17.475 158.019 17.3 157.369 17.3C156.686 17.3 156.136 17.475 155.719 17.825C155.303 18.175 155.094 18.675 155.094 19.325C155.094 19.975 155.303 20.475 155.719 20.825C156.136 21.175 156.686 21.35 157.369 21.35ZM154.369 29.025C154.369 29.6417 154.653 30.1 155.219 30.4C155.803 30.7167 156.511 30.875 157.344 30.875C158.144 30.875 158.794 30.7083 159.294 30.375C159.794 30.0583 160.044 29.625 160.044 29.075C160.044 28.625 159.878 28.25 159.544 27.95C159.228 27.65 158.586 27.4667 157.619 27.4C156.936 27.35 156.303 27.275 155.719 27.175C155.236 27.4417 154.886 27.7333 154.669 28.05C154.469 28.3667 154.369 28.6917 154.369 29.025Z" fill="#0A0D12"/>
<path d="M170.389 27.8C169.139 27.8 168.031 27.5333 167.064 27C166.098 26.4667 165.339 25.7167 164.789 24.75C164.239 23.7833 163.964 22.6667 163.964 21.4C163.964 20.1167 164.231 18.975 164.764 17.975C165.314 16.975 166.064 16.2 167.014 15.65C167.981 15.0833 169.114 14.8 170.414 14.8C171.631 14.8 172.706 15.0667 173.639 15.6C174.573 16.1333 175.298 16.8667 175.814 17.8C176.348 18.7167 176.614 19.7417 176.614 20.875C176.614 21.0583 176.606 21.25 176.589 21.45C176.589 21.65 176.581 21.8583 176.564 22.075H167.139C167.206 23.0417 167.539 23.8 168.139 24.35C168.756 24.9 169.498 25.175 170.364 25.175C171.014 25.175 171.556 25.0333 171.989 24.75C172.439 24.45 172.773 24.0667 172.989 23.6H176.239C176.006 24.3833 175.614 25.1 175.064 25.75C174.531 26.3833 173.864 26.8833 173.064 27.25C172.281 27.6167 171.389 27.8 170.389 27.8ZM170.414 17.4C169.631 17.4 168.939 17.625 168.339 18.075C167.739 18.5083 167.356 19.175 167.189 20.075H173.364C173.314 19.2583 173.014 18.6083 172.464 18.125C171.914 17.6417 171.231 17.4 170.414 17.4Z" fill="#0A0D12"/>
<defs>
<filter id="filter0_ddiii_957_102" x="5.96046e-08" y="-2.5" width="45" height="47.5" filterUnits="userSpaceOnUse" color-interpolation-filters="sRGB">
<feFlood flood-opacity="0" result="BackgroundImageFix"/>
<feColorMatrix in="SourceAlpha" type="matrix" values="0 0 0 0 0 0 0 0 0 0 0 0 0 0 0 0 0 0 127 0" result="hardAlpha"/>
<feOffset dy="0.833333"/>
<feGaussianBlur stdDeviation="0.416667"/>
<feComposite in2="hardAlpha" operator="out"/>
<feColorMatrix type="matrix" values="0 0 0 0 0.162923 0 0 0 0 0.162923 0 0 0 0 0.162923 0 0 0 0.08 0"/>
<feBlend mode="normal" in2="BackgroundImageFix" result="effect1_dropShadow_957_102"/>
<feColorMatrix in="SourceAlpha" type="matrix" values="0 0 0 0 0 0 0 0 0 0 0 0 0 0 0 0 0 0 127 0" result="hardAlpha"/>
<feMorphology radius="0.833333" operator="erode" in="SourceAlpha" result="effect2_dropShadow_957_102"/>
<feOffset dy="2.5"/>
<feGaussianBlur stdDeviation="1.66667"/>
<feComposite in2="hardAlpha" operator="out"/>
<feColorMatrix type="matrix" values="0 0 0 0 0.164706 0 0 0 0 0.164706 0 0 0 0 0.164706 0 0 0 0.14 0"/>
<feBlend mode="normal" in2="effect1_dropShadow_957_102" result="effect2_dropShadow_957_102"/>
<feBlend mode="normal" in="SourceGraphic" in2="effect2_dropShadow_957_102" result="shape"/>
<feColorMatrix in="SourceAlpha" type="matrix" values="0 0 0 0 0 0 0 0 0 0 0 0 0 0 0 0 0 0 127 0" result="hardAlpha"/>
<feOffset dy="-2.5"/>
<feGaussianBlur stdDeviation="1.25"/>
<feComposite in2="hardAlpha" operator="arithmetic" k2="-1" k3="1"/>
<feColorMatrix type="matrix" values="0 0 0 0 0 0 0 0 0 0 0 0 0 0 0 0 0 0 0.1 0"/>
<feBlend mode="normal" in2="shape" result="effect3_innerShadow_957_102"/>
<feColorMatrix in="SourceAlpha" type="matrix" values="0 0 0 0 0 0 0 0 0 0 0 0 0 0 0 0 0 0 127 0" result="hardAlpha"/>
<feOffset dy="2.5"/>
<feGaussianBlur stdDeviation="1.25"/>
<feComposite in2="hardAlpha" operator="arithmetic" k2="-1" k3="1"/>
<feColorMatrix type="matrix" values="0 0 0 0 1 0 0 0 0 1 0 0 0 0 1 0 0 0 0.1 0"/>
<feBlend mode="normal" in2="effect3_innerShadow_957_102" result="effect4_innerShadow_957_102"/>
<feColorMatrix in="SourceAlpha" type="matrix" values="0 0 0 0 0 0 0 0 0 0 0 0 0 0 0 0 0 0 127 0" result="hardAlpha"/>
<feMorphology radius="0.833333" operator="erode" in="SourceAlpha" result="effect5_innerShadow_957_102"/>
<feOffset/>
<feComposite in2="hardAlpha" operator="arithmetic" k2="-1" k3="1"/>
<feColorMatrix type="matrix" values="0 0 0 0 0 0 0 0 0 0 0 0 0 0 0 0 0 0 0.2 0"/>
<feBlend mode="normal" in2="effect4_innerShadow_957_102" result="effect5_innerShadow_957_102"/>
</filter>
<filter id="filter1_d_957_102" x="8.125" y="3.5415" width="28.75" height="36.6665" filterUnits="userSpaceOnUse" color-interpolation-filters="sRGB">
<feFlood flood-opacity="0" result="BackgroundImageFix"/>
<feColorMatrix in="SourceAlpha" type="matrix" values="0 0 0 0 0 0 0 0 0 0 0 0 0 0 0 0 0 0 127 0" result="hardAlpha"/>
<feMorphology radius="1.25" operator="erode" in="SourceAlpha" result="effect1_dropShadow_957_102"/>
<feOffset dy="1.875"/>
<feGaussianBlur stdDeviation="1.875"/>
<feComposite in2="hardAlpha" operator="out"/>
<feColorMatrix type="matrix" values="0 0 0 0 0.141176 0 0 0 0 0.141176 0 0 0 0 0.141176 0 0 0 0.1 0"/>
<feBlend mode="normal" in2="BackgroundImageFix" result="effect1_dropShadow_957_102"/>
<feBlend mode="normal" in="SourceGraphic" in2="effect1_dropShadow_957_102" result="shape"/>
</filter>
<linearGradient id="paint0_linear_957_102" x1="20" y1="4.96706e-07" x2="21.6667" y2="40" gradientUnits="userSpaceOnUse">
<stop stop-color="white" stop-opacity="0"/>
<stop offset="1" stop-color="white" stop-opacity="0.12"/>
</linearGradient>
<linearGradient id="paint1_linear_957_102" x1="22.5" y1="8.125" x2="22.5" y2="31.875" gradientUnits="userSpaceOnUse">
<stop stop-color="white" stop-opacity="0.8"/>
<stop offset="1" stop-color="white" stop-opacity="0.5"/>
</linearGradient>
<linearGradient id="paint2_linear_957_102" x1="22.5" y1="0" x2="22.5" y2="40" gradientUnits="userSpaceOnUse">
<stop stop-color="white" stop-opacity="0.12"/>
<stop offset="1" stop-color="white" stop-opacity="0"/>
</linearGradient>
<clipPath id="clip0_957_102">
<rect x="2.5" width="40" height="40" rx="10" fill="white"/>
</clipPath>
</defs>
</svg>
