<svg width="195" height="45" viewBox="0 0 195 45" fill="none" xmlns="http://www.w3.org/2000/svg">
<g filter="url(#filter0_ddiii_957_86)">
<g clip-path="url(#clip0_957_86)">
<rect x="2.5" width="40" height="40" rx="10" fill="#0A0D12"/>
<rect width="40" height="40" transform="translate(2.5)" fill="url(#paint0_linear_957_86)"/>
<g filter="url(#filter1_d_957_86)">
<path d="M17.7859 15.7589L27.0647 10.4018L21.4974 7.1875L12.2187 12.5445L12.2185 23.2587L17.7858 26.473L17.7859 15.7589Z" fill="url(#paint1_linear_957_86)"/>
<path d="M32.7791 16.1161L32.7791 26.8304L23.5002 32.1873L17.9329 28.9731L27.2117 23.6159L27.2117 12.9019L32.7791 16.1161Z" fill="url(#paint2_linear_957_86)"/>
</g>
</g>
<rect x="3.33333" y="0.833333" width="38.3333" height="38.3333" rx="9.16667" stroke="url(#paint3_linear_957_86)" stroke-width="1.66667"/>
</g>
<path d="M59.2725 27.7025C57.0525 27.7025 55.365 27.2075 54.21 26.2175C53.07 25.2275 52.5 23.9375 52.5 22.3475H56.055C56.085 23.1575 56.355 23.81 56.865 24.305C57.39 24.785 58.2375 25.025 59.4075 25.025C60.3075 25.025 61.0275 24.86 61.5675 24.53C62.1075 24.2 62.3775 23.7125 62.3775 23.0675C62.3775 22.5425 62.265 22.1375 62.04 21.8525C61.815 21.5525 61.425 21.32 60.87 21.155C60.315 20.99 59.5425 20.825 58.5525 20.66C56.6625 20.36 55.2375 19.85 54.2775 19.13C53.3175 18.395 52.8375 17.315 52.8375 15.89C52.8375 14.345 53.4075 13.13 54.5475 12.245C55.6875 11.345 57.255 10.895 59.25 10.895C60.54 10.895 61.65 11.0975 62.58 11.5025C63.51 11.9075 64.23 12.4775 64.74 13.2125C65.265 13.9475 65.5275 14.8025 65.5275 15.7775H61.995C61.965 14.9825 61.6725 14.4125 61.1175 14.0675C60.5775 13.7225 59.9175 13.55 59.1375 13.55C58.3125 13.55 57.66 13.7225 57.18 14.0675C56.715 14.3975 56.4825 14.855 56.4825 15.44C56.4825 15.95 56.6175 16.3325 56.8875 16.5875C57.1575 16.8425 57.5775 17.0375 58.1475 17.1725C58.7325 17.3075 59.4975 17.4575 60.4425 17.6225C61.1325 17.7275 61.8075 17.87 62.4675 18.05C63.1275 18.23 63.72 18.5 64.245 18.86C64.785 19.205 65.2125 19.6925 65.5275 20.3225C65.8575 20.9375 66.0225 21.74 66.0225 22.73C66.0225 24.2 65.4525 25.4 64.3125 26.33C63.1875 27.245 61.5075 27.7025 59.2725 27.7025Z" fill="#0A0D12"/>
<path d="M67.8417 27.5V11.0975H71.1492V17.6225H71.2842C71.6142 16.8275 72.1242 16.2275 72.8142 15.8225C73.5042 15.4175 74.2767 15.215 75.1317 15.215C75.9417 15.215 76.6617 15.38 77.2917 15.71C77.9367 16.04 78.4467 16.5725 78.8217 17.3075C79.1967 18.0275 79.3842 18.995 79.3842 20.21V27.5H76.0767V20.93C76.0767 19.91 75.8967 19.1525 75.5367 18.6575C75.1767 18.1625 74.5992 17.915 73.8042 17.915C72.9492 17.915 72.2892 18.2075 71.8242 18.7925C71.3742 19.3625 71.1492 20.03 71.1492 20.795V27.5H67.8417Z" fill="#0A0D12"/>
<path d="M85.6172 27.7025C84.2222 27.7025 83.1572 27.2975 82.4222 26.4875C81.6872 25.6775 81.3197 24.5 81.3197 22.955V15.44H84.6272V22.0775C84.6272 23.0375 84.7997 23.7725 85.1447 24.2825C85.5047 24.7775 86.0972 25.025 86.9222 25.025C87.7622 25.025 88.4072 24.74 88.8572 24.17C89.3222 23.585 89.5547 22.895 89.5547 22.1V15.44H92.8622V27.5H89.6897L89.5547 25.295H89.3972C89.1122 26.075 88.6247 26.675 87.9347 27.095C87.2597 27.5 86.4872 27.7025 85.6172 27.7025Z" fill="#0A0D12"/>
<path d="M99.1151 27.5C98.3051 27.5 97.6751 27.38 97.2251 27.14C96.7751 26.9 96.4601 26.5625 96.2801 26.1275C96.1151 25.6775 96.0326 25.1525 96.0326 24.5525V18.095H93.8726V15.44H96.0326V12.155L99.3176 11.84V15.44H103.548V12.155L106.833 11.84V15.44H109.263V18.095H106.833V23.9225C106.833 24.2825 106.915 24.5225 107.08 24.6425C107.245 24.7625 107.485 24.8225 107.8 24.8225H109.263V27.5H106.63C105.82 27.5 105.19 27.38 104.74 27.14C104.29 26.9 103.975 26.5625 103.795 26.1275C103.63 25.6775 103.548 25.1525 103.548 24.5525V18.095H99.3176V23.9225C99.3176 24.2825 99.4001 24.5225 99.5651 24.6425C99.7301 24.7625 99.9701 24.8225 100.285 24.8225H101.748V27.5H99.1151Z" fill="#0A0D12"/>
<path d="M115.834 27.7025C114.574 27.7025 113.494 27.4475 112.594 26.9375C111.709 26.4275 111.027 25.715 110.547 24.8C110.067 23.87 109.827 22.79 109.827 21.56C109.827 20.255 110.067 19.13 110.547 18.185C111.042 17.24 111.732 16.5125 112.617 16.0025C113.502 15.4775 114.537 15.215 115.722 15.215C117.117 15.215 118.264 15.5225 119.164 16.1375C120.064 16.7375 120.709 17.57 121.099 18.635C121.489 19.685 121.617 20.8775 121.482 22.2125H113.089C113.074 23.1725 113.322 23.915 113.832 24.44C114.342 24.95 115.009 25.205 115.834 25.205C116.464 25.205 116.997 25.07 117.432 24.8C117.882 24.515 118.167 24.14 118.287 23.675H121.414C121.309 24.485 121.002 25.19 120.492 25.79C119.997 26.39 119.352 26.8625 118.557 27.2075C117.762 27.5375 116.854 27.7025 115.834 27.7025ZM115.722 17.7125C114.972 17.7125 114.364 17.93 113.899 18.365C113.434 18.785 113.172 19.3625 113.112 20.0975H118.242C118.197 19.2875 117.934 18.6875 117.454 18.2975C116.989 17.9075 116.412 17.7125 115.722 17.7125Z" fill="#0A0D12"/>
<path d="M123.193 27.5V15.44H126.185L126.32 17.375H126.433C126.703 16.595 127.13 16.055 127.715 15.755C128.315 15.44 128.998 15.2825 129.763 15.2825H130.438V18.3875H129.695C128.585 18.3875 127.783 18.635 127.288 19.13C126.793 19.61 126.53 20.3 126.5 21.2V27.5H123.193Z" fill="#0A0D12"/>
<path d="M132.958 27.5V18.095H130.978V15.44H132.958V14.1575C132.958 13.1675 133.265 12.41 133.88 11.885C134.495 11.36 135.365 11.0975 136.49 11.0975H138.92V13.325H137.458C136.993 13.325 136.678 13.4225 136.513 13.6175C136.348 13.8125 136.265 14.06 136.265 14.36V15.44H138.718V18.095H136.265V27.5H132.958Z" fill="#0A0D12"/>
<path d="M140.002 27.5V15.44H142.995L143.13 17.375H143.243C143.512 16.595 143.94 16.055 144.525 15.755C145.125 15.44 145.807 15.2825 146.573 15.2825H147.247V18.3875H146.505C145.395 18.3875 144.592 18.635 144.097 19.13C143.603 19.61 143.34 20.3 143.31 21.2V27.5H140.002Z" fill="#0A0D12"/>
<path d="M152.415 27.7025C150.975 27.7025 149.812 27.185 148.927 26.15C148.042 25.1 147.6 23.54 147.6 21.47C147.6 19.385 148.042 17.825 148.927 16.79C149.812 15.74 150.975 15.215 152.415 15.215C153.345 15.215 154.14 15.425 154.8 15.845C155.475 16.265 155.955 16.8275 156.24 17.5325H156.42L156.555 15.44H159.727V27.5H156.42V25.385H156.24C155.955 26.075 155.475 26.6375 154.8 27.0725C154.14 27.4925 153.345 27.7025 152.415 27.7025ZM153.675 25.025C154.29 25.025 154.792 24.8825 155.182 24.5975C155.587 24.3125 155.887 23.945 156.082 23.495C156.277 23.03 156.375 22.5425 156.375 22.0325V20.885C156.375 20.36 156.277 19.8725 156.082 19.4225C155.887 18.9725 155.587 18.605 155.182 18.32C154.792 18.035 154.29 17.8925 153.675 17.8925C152.865 17.8925 152.212 18.185 151.717 18.77C151.222 19.34 150.975 20.24 150.975 21.47C150.975 22.685 151.222 23.585 151.717 24.17C152.212 24.74 152.865 25.025 153.675 25.025Z" fill="#0A0D12"/>
<path d="M162.108 27.5V15.44H165.303L165.415 17.6225H165.55C165.85 16.8275 166.338 16.2275 167.013 15.8225C167.688 15.4175 168.43 15.215 169.24 15.215C170.08 15.215 170.845 15.4175 171.535 15.8225C172.225 16.2275 172.735 16.925 173.065 17.915H173.245C173.53 17.015 174.033 16.34 174.753 15.89C175.488 15.44 176.313 15.215 177.228 15.215C178.008 15.215 178.705 15.38 179.32 15.71C179.935 16.04 180.423 16.5725 180.783 17.3075C181.158 18.0275 181.345 18.995 181.345 20.21V27.5H178.038V20.93C178.038 19.91 177.865 19.1525 177.52 18.6575C177.19 18.1625 176.65 17.915 175.9 17.915C175.105 17.915 174.483 18.2075 174.033 18.7925C173.598 19.3625 173.38 20.03 173.38 20.795V27.5H170.073V20.93C170.073 19.91 169.9 19.1525 169.555 18.6575C169.225 18.1625 168.685 17.915 167.935 17.915C167.125 17.915 166.503 18.2075 166.068 18.7925C165.633 19.3625 165.415 20.03 165.415 20.795V27.5H162.108Z" fill="#0A0D12"/>
<path d="M188.896 27.7025C187.636 27.7025 186.556 27.4475 185.656 26.9375C184.771 26.4275 184.089 25.715 183.609 24.8C183.129 23.87 182.889 22.79 182.889 21.56C182.889 20.255 183.129 19.13 183.609 18.185C184.104 17.24 184.794 16.5125 185.679 16.0025C186.564 15.4775 187.599 15.215 188.784 15.215C190.179 15.215 191.326 15.5225 192.226 16.1375C193.126 16.7375 193.771 17.57 194.161 18.635C194.551 19.685 194.679 20.8775 194.544 22.2125H186.151C186.136 23.1725 186.384 23.915 186.894 24.44C187.404 24.95 188.071 25.205 188.896 25.205C189.526 25.205 190.059 25.07 190.494 24.8C190.944 24.515 191.229 24.14 191.349 23.675H194.476C194.371 24.485 194.064 25.19 193.554 25.79C193.059 26.39 192.414 26.8625 191.619 27.2075C190.824 27.5375 189.916 27.7025 188.896 27.7025ZM188.784 17.7125C188.034 17.7125 187.426 17.93 186.961 18.365C186.496 18.785 186.234 19.3625 186.174 20.0975H191.304C191.259 19.2875 190.996 18.6875 190.516 18.2975C190.051 17.9075 189.474 17.7125 188.784 17.7125Z" fill="#0A0D12"/>
<defs>
<filter id="filter0_ddiii_957_86" x="5.96046e-08" y="-2.5" width="45" height="47.5" filterUnits="userSpaceOnUse" color-interpolation-filters="sRGB">
<feFlood flood-opacity="0" result="BackgroundImageFix"/>
<feColorMatrix in="SourceAlpha" type="matrix" values="0 0 0 0 0 0 0 0 0 0 0 0 0 0 0 0 0 0 127 0" result="hardAlpha"/>
<feOffset dy="0.833333"/>
<feGaussianBlur stdDeviation="0.416667"/>
<feComposite in2="hardAlpha" operator="out"/>
<feColorMatrix type="matrix" values="0 0 0 0 0.162923 0 0 0 0 0.162923 0 0 0 0 0.162923 0 0 0 0.08 0"/>
<feBlend mode="normal" in2="BackgroundImageFix" result="effect1_dropShadow_957_86"/>
<feColorMatrix in="SourceAlpha" type="matrix" values="0 0 0 0 0 0 0 0 0 0 0 0 0 0 0 0 0 0 127 0" result="hardAlpha"/>
<feMorphology radius="0.833333" operator="erode" in="SourceAlpha" result="effect2_dropShadow_957_86"/>
<feOffset dy="2.5"/>
<feGaussianBlur stdDeviation="1.66667"/>
<feComposite in2="hardAlpha" operator="out"/>
<feColorMatrix type="matrix" values="0 0 0 0 0.164706 0 0 0 0 0.164706 0 0 0 0 0.164706 0 0 0 0.14 0"/>
<feBlend mode="normal" in2="effect1_dropShadow_957_86" result="effect2_dropShadow_957_86"/>
<feBlend mode="normal" in="SourceGraphic" in2="effect2_dropShadow_957_86" result="shape"/>
<feColorMatrix in="SourceAlpha" type="matrix" values="0 0 0 0 0 0 0 0 0 0 0 0 0 0 0 0 0 0 127 0" result="hardAlpha"/>
<feOffset dy="-2.5"/>
<feGaussianBlur stdDeviation="1.25"/>
<feComposite in2="hardAlpha" operator="arithmetic" k2="-1" k3="1"/>
<feColorMatrix type="matrix" values="0 0 0 0 0 0 0 0 0 0 0 0 0 0 0 0 0 0 0.1 0"/>
<feBlend mode="normal" in2="shape" result="effect3_innerShadow_957_86"/>
<feColorMatrix in="SourceAlpha" type="matrix" values="0 0 0 0 0 0 0 0 0 0 0 0 0 0 0 0 0 0 127 0" result="hardAlpha"/>
<feOffset dy="2.5"/>
<feGaussianBlur stdDeviation="1.25"/>
<feComposite in2="hardAlpha" operator="arithmetic" k2="-1" k3="1"/>
<feColorMatrix type="matrix" values="0 0 0 0 1 0 0 0 0 1 0 0 0 0 1 0 0 0 0.1 0"/>
<feBlend mode="normal" in2="effect3_innerShadow_957_86" result="effect4_innerShadow_957_86"/>
<feColorMatrix in="SourceAlpha" type="matrix" values="0 0 0 0 0 0 0 0 0 0 0 0 0 0 0 0 0 0 127 0" result="hardAlpha"/>
<feMorphology radius="0.833333" operator="erode" in="SourceAlpha" result="effect5_innerShadow_957_86"/>
<feOffset/>
<feComposite in2="hardAlpha" operator="arithmetic" k2="-1" k3="1"/>
<feColorMatrix type="matrix" values="0 0 0 0 0 0 0 0 0 0 0 0 0 0 0 0 0 0 0.2 0"/>
<feBlend mode="normal" in2="effect4_innerShadow_957_86" result="effect5_innerShadow_957_86"/>
</filter>
<filter id="filter1_d_957_86" x="9.71851" y="4.375" width="25.5605" height="35" filterUnits="userSpaceOnUse" color-interpolation-filters="sRGB">
<feFlood flood-opacity="0" result="BackgroundImageFix"/>
<feColorMatrix in="SourceAlpha" type="matrix" values="0 0 0 0 0 0 0 0 0 0 0 0 0 0 0 0 0 0 127 0" result="hardAlpha"/>
<feMorphology radius="1.25" operator="erode" in="SourceAlpha" result="effect1_dropShadow_957_86"/>
<feOffset dy="1.875"/>
<feGaussianBlur stdDeviation="1.875"/>
<feComposite in2="hardAlpha" operator="out"/>
<feColorMatrix type="matrix" values="0 0 0 0 0.141176 0 0 0 0 0.141176 0 0 0 0 0.141176 0 0 0 0.1 0"/>
<feBlend mode="normal" in2="BackgroundImageFix" result="effect1_dropShadow_957_86"/>
<feBlend mode="normal" in="SourceGraphic" in2="effect1_dropShadow_957_86" result="shape"/>
</filter>
<linearGradient id="paint0_linear_957_86" x1="20" y1="4.96706e-07" x2="21.6667" y2="40" gradientUnits="userSpaceOnUse">
<stop stop-color="white" stop-opacity="0"/>
<stop offset="1" stop-color="white" stop-opacity="0.12"/>
</linearGradient>
<linearGradient id="paint1_linear_957_86" x1="19.6416" y1="7.1875" x2="19.6416" y2="26.473" gradientUnits="userSpaceOnUse">
<stop stop-color="white" stop-opacity="0.8"/>
<stop offset="1" stop-color="white" stop-opacity="0.5"/>
</linearGradient>
<linearGradient id="paint2_linear_957_86" x1="25.356" y1="12.9019" x2="25.356" y2="32.1873" gradientUnits="userSpaceOnUse">
<stop stop-color="white" stop-opacity="0.8"/>
<stop offset="1" stop-color="white" stop-opacity="0.5"/>
</linearGradient>
<linearGradient id="paint3_linear_957_86" x1="22.5" y1="0" x2="22.5" y2="40" gradientUnits="userSpaceOnUse">
<stop stop-color="white" stop-opacity="0.12"/>
<stop offset="1" stop-color="white" stop-opacity="0"/>
</linearGradient>
<clipPath id="clip0_957_86">
<rect x="2.5" width="40" height="40" rx="10" fill="white"/>
</clipPath>
</defs>
</svg>
