<svg width="184" height="45" viewBox="0 0 184 45" fill="none" xmlns="http://www.w3.org/2000/svg">
<g filter="url(#filter0_ddiii_957_72)">
<g clip-path="url(#clip0_957_72)">
<rect x="2.5" width="40" height="40" rx="10" fill="#16B364"/>
<rect width="40" height="40" transform="translate(2.5)" fill="url(#paint0_linear_957_72)"/>
<g filter="url(#filter1_d_957_72)">
<path d="M19.5312 8.125C19.5312 13.0438 15.5438 17.0312 10.625 17.0312V22.9688H19.5312V31.875H25.4688C25.4688 26.9562 29.4562 22.9688 34.375 22.9688V17.0312H25.4688V8.125H19.5312Z" fill="url(#paint1_linear_957_72)"/>
</g>
</g>
<rect x="3.33333" y="0.833333" width="38.3333" height="38.3333" rx="9.16667" stroke="url(#paint2_linear_957_72)" stroke-width="1.66667"/>
</g>
<path d="M61 27.8C59.2333 27.8 57.7167 27.425 56.45 26.675C55.1833 25.9083 54.2083 24.85 53.525 23.5C52.8417 22.1333 52.5 20.5583 52.5 18.775C52.5 16.9917 52.8417 15.4167 53.525 14.05C54.2083 12.6833 55.1833 11.6167 56.45 10.85C57.7167 10.0833 59.2333 9.7 61 9.7C63.1 9.7 64.8167 10.225 66.15 11.275C67.5 12.3083 68.3417 13.7667 68.675 15.65H65.15C64.9333 14.7 64.4667 13.9583 63.75 13.425C63.05 12.875 62.1167 12.6 60.95 12.6C59.3333 12.6 58.0667 13.15 57.15 14.25C56.2333 15.35 55.775 16.8583 55.775 18.775C55.775 20.6917 56.2333 22.2 57.15 23.3C58.0667 24.3833 59.3333 24.925 60.95 24.925C62.1167 24.925 63.05 24.675 63.75 24.175C64.4667 23.6583 64.9333 22.95 65.15 22.05H68.675C68.3417 23.85 67.5 25.2583 66.15 26.275C64.8167 27.2917 63.1 27.8 61 27.8Z" fill="#0A0D12"/>
<path d="M69.9326 27.5V9.5H73.1326V27.5H69.9326Z" fill="#0A0D12"/>
<path d="M80.6023 27.8C79.4357 27.8 78.394 27.5167 77.4773 26.95C76.5607 26.3833 75.8357 25.6083 75.3023 24.625C74.769 23.6417 74.5023 22.525 74.5023 21.275C74.5023 20.025 74.769 18.9167 75.3023 17.95C75.8357 16.9667 76.5607 16.2 77.4773 15.65C78.394 15.0833 79.4357 14.8 80.6023 14.8C81.5357 14.8 82.3523 14.975 83.0523 15.325C83.7523 15.675 84.319 16.1667 84.7523 16.8L84.9273 15.1H87.9523V27.5H84.9523L84.7523 25.725C84.3523 26.275 83.819 26.7583 83.1523 27.175C82.5023 27.5917 81.6523 27.8 80.6023 27.8ZM81.2773 25C82.3107 25 83.1523 24.6583 83.8023 23.975C84.469 23.275 84.8023 22.3833 84.8023 21.3C84.8023 20.2167 84.469 19.3333 83.8023 18.65C83.1523 17.95 82.3107 17.6 81.2773 17.6C80.2607 17.6 79.419 17.9417 78.7523 18.625C78.0857 19.3083 77.7523 20.1917 77.7523 21.275C77.7523 22.3583 78.0857 23.25 78.7523 23.95C79.419 24.65 80.2607 25 81.2773 25Z" fill="#0A0D12"/>
<path d="M89.7109 27.5V15.1H92.5359L92.7859 17.2C93.1693 16.4667 93.7193 15.8833 94.4359 15.45C95.1693 15.0167 96.0276 14.8 97.0109 14.8C98.5443 14.8 99.7359 15.2833 100.586 16.25C101.436 17.2167 101.861 18.6333 101.861 20.5V27.5H98.6609V20.8C98.6609 19.7333 98.4443 18.9167 98.0109 18.35C97.5776 17.7833 96.9026 17.5 95.9859 17.5C95.0859 17.5 94.3443 17.8167 93.7609 18.45C93.1943 19.0833 92.9109 19.9667 92.9109 21.1V27.5H89.7109Z" fill="#0A0D12"/>
<path d="M109.121 27.8C107.954 27.8 106.913 27.5167 105.996 26.95C105.079 26.3833 104.354 25.6083 103.821 24.625C103.288 23.6417 103.021 22.525 103.021 21.275C103.021 20.025 103.288 18.9167 103.821 17.95C104.354 16.9667 105.079 16.2 105.996 15.65C106.913 15.0833 107.954 14.8 109.121 14.8C110.054 14.8 110.871 14.975 111.571 15.325C112.271 15.675 112.838 16.1667 113.271 16.8V9.5H116.471V27.5H113.621L113.271 25.725C112.871 26.275 112.338 26.7583 111.671 27.175C111.021 27.5917 110.171 27.8 109.121 27.8ZM109.796 25C110.829 25 111.671 24.6583 112.321 23.975C112.988 23.275 113.321 22.3833 113.321 21.3C113.321 20.2167 112.988 19.3333 112.321 18.65C111.671 17.95 110.829 17.6 109.796 17.6C108.779 17.6 107.938 17.9417 107.271 18.625C106.604 19.3083 106.271 20.1917 106.271 21.275C106.271 22.3583 106.604 23.25 107.271 23.95C107.938 24.65 108.779 25 109.796 25Z" fill="#0A0D12"/>
<path d="M124.254 27.8C123.004 27.8 121.896 27.5333 120.929 27C119.963 26.4667 119.204 25.7167 118.654 24.75C118.104 23.7833 117.829 22.6667 117.829 21.4C117.829 20.1167 118.096 18.975 118.629 17.975C119.179 16.975 119.929 16.2 120.879 15.65C121.846 15.0833 122.979 14.8 124.279 14.8C125.496 14.8 126.571 15.0667 127.504 15.6C128.438 16.1333 129.163 16.8667 129.679 17.8C130.213 18.7167 130.479 19.7417 130.479 20.875C130.479 21.0583 130.471 21.25 130.454 21.45C130.454 21.65 130.446 21.8583 130.429 22.075H121.004C121.071 23.0417 121.404 23.8 122.004 24.35C122.621 24.9 123.363 25.175 124.229 25.175C124.879 25.175 125.421 25.0333 125.854 24.75C126.304 24.45 126.638 24.0667 126.854 23.6H130.104C129.871 24.3833 129.479 25.1 128.929 25.75C128.396 26.3833 127.729 26.8833 126.929 27.25C126.146 27.6167 125.254 27.8 124.254 27.8ZM124.279 17.4C123.496 17.4 122.804 17.625 122.204 18.075C121.604 18.5083 121.221 19.175 121.054 20.075H127.229C127.179 19.2583 126.879 18.6083 126.329 18.125C125.779 17.6417 125.096 17.4 124.279 17.4Z" fill="#0A0D12"/>
<path d="M136.796 27.8C135.696 27.8 134.729 27.625 133.896 27.275C133.063 26.9083 132.396 26.4083 131.896 25.775C131.396 25.1417 131.096 24.4083 130.996 23.575H134.221C134.321 24.0583 134.588 24.475 135.021 24.825C135.471 25.1583 136.046 25.325 136.746 25.325C137.446 25.325 137.954 25.1833 138.271 24.9C138.604 24.6167 138.771 24.2917 138.771 23.925C138.771 23.3917 138.538 23.0333 138.071 22.85C137.604 22.65 136.954 22.4583 136.121 22.275C135.588 22.1583 135.046 22.0167 134.496 21.85C133.946 21.6833 133.438 21.475 132.971 21.225C132.521 20.9583 132.154 20.625 131.871 20.225C131.588 19.8083 131.446 19.3 131.446 18.7C131.446 17.6 131.879 16.675 132.746 15.925C133.629 15.175 134.863 14.8 136.446 14.8C137.913 14.8 139.079 15.1417 139.946 15.825C140.829 16.5083 141.354 17.45 141.521 18.65H138.496C138.313 17.7333 137.621 17.275 136.421 17.275C135.821 17.275 135.354 17.3917 135.021 17.625C134.704 17.8583 134.546 18.15 134.546 18.5C134.546 18.8667 134.788 19.1583 135.271 19.375C135.754 19.5917 136.396 19.7917 137.196 19.975C138.063 20.175 138.854 20.4 139.571 20.65C140.304 20.8833 140.888 21.2417 141.321 21.725C141.754 22.1917 141.971 22.8667 141.971 23.75C141.988 24.5167 141.788 25.2083 141.371 25.825C140.954 26.4417 140.354 26.925 139.571 27.275C138.788 27.625 137.863 27.8 136.796 27.8Z" fill="#0A0D12"/>
<path d="M148.44 27.5C147.14 27.5 146.098 27.1833 145.315 26.55C144.532 25.9167 144.14 24.7917 144.14 23.175V17.775H142.015V15.1H144.14L144.515 11.775H147.34V15.1H150.69V17.775H148.173C147.713 17.775 147.34 18.1481 147.34 18.6083V23.2C147.34 23.8 147.465 24.2167 147.715 24.45C147.982 24.6667 148.432 24.775 149.065 24.775H150.615V27.5H148.44Z" fill="#0A0D12"/>
<path d="M153.662 13.175C153.079 13.175 152.596 13 152.212 12.65C151.846 12.3 151.662 11.8583 151.662 11.325C151.662 10.7917 151.846 10.3583 152.212 10.025C152.596 9.675 153.079 9.5 153.662 9.5C154.246 9.5 154.721 9.675 155.087 10.025C155.471 10.3583 155.662 10.7917 155.662 11.325C155.662 11.8583 155.471 12.3 155.087 12.65C154.721 13 154.246 13.175 153.662 13.175ZM152.062 27.5V15.1H155.262V27.5H152.062Z" fill="#0A0D12"/>
<path d="M157.103 27.5V15.1H159.928L160.178 17.2C160.561 16.4667 161.111 15.8833 161.828 15.45C162.561 15.0167 163.419 14.8 164.403 14.8C165.936 14.8 167.128 15.2833 167.978 16.25C168.828 17.2167 169.253 18.6333 169.253 20.5V27.5H166.053V20.8C166.053 19.7333 165.836 18.9167 165.403 18.35C164.969 17.7833 164.294 17.5 163.378 17.5C162.478 17.5 161.736 17.8167 161.153 18.45C160.586 19.0833 160.303 19.9667 160.303 21.1V27.5H157.103Z" fill="#0A0D12"/>
<path d="M176.838 27.8C175.588 27.8 174.479 27.5333 173.512 27C172.546 26.4667 171.787 25.7167 171.237 24.75C170.688 23.7833 170.412 22.6667 170.412 21.4C170.412 20.1167 170.679 18.975 171.213 17.975C171.762 16.975 172.512 16.2 173.462 15.65C174.429 15.0833 175.562 14.8 176.862 14.8C178.079 14.8 179.154 15.0667 180.087 15.6C181.021 16.1333 181.746 16.8667 182.262 17.8C182.796 18.7167 183.062 19.7417 183.062 20.875C183.062 21.0583 183.054 21.25 183.038 21.45C183.038 21.65 183.029 21.8583 183.012 22.075H173.588C173.654 23.0417 173.988 23.8 174.588 24.35C175.204 24.9 175.946 25.175 176.812 25.175C177.463 25.175 178.004 25.0333 178.438 24.75C178.887 24.45 179.221 24.0667 179.437 23.6H182.688C182.454 24.3833 182.062 25.1 181.512 25.75C180.979 26.3833 180.312 26.8833 179.512 27.25C178.729 27.6167 177.838 27.8 176.838 27.8ZM176.862 17.4C176.079 17.4 175.387 17.625 174.787 18.075C174.187 18.5083 173.804 19.175 173.638 20.075H179.812C179.762 19.2583 179.463 18.6083 178.913 18.125C178.363 17.6417 177.679 17.4 176.862 17.4Z" fill="#0A0D12"/>
<defs>
<filter id="filter0_ddiii_957_72" x="5.96046e-08" y="-2.5" width="45" height="47.5" filterUnits="userSpaceOnUse" color-interpolation-filters="sRGB">
<feFlood flood-opacity="0" result="BackgroundImageFix"/>
<feColorMatrix in="SourceAlpha" type="matrix" values="0 0 0 0 0 0 0 0 0 0 0 0 0 0 0 0 0 0 127 0" result="hardAlpha"/>
<feOffset dy="0.833333"/>
<feGaussianBlur stdDeviation="0.416667"/>
<feComposite in2="hardAlpha" operator="out"/>
<feColorMatrix type="matrix" values="0 0 0 0 0.162923 0 0 0 0 0.162923 0 0 0 0 0.162923 0 0 0 0.08 0"/>
<feBlend mode="normal" in2="BackgroundImageFix" result="effect1_dropShadow_957_72"/>
<feColorMatrix in="SourceAlpha" type="matrix" values="0 0 0 0 0 0 0 0 0 0 0 0 0 0 0 0 0 0 127 0" result="hardAlpha"/>
<feMorphology radius="0.833333" operator="erode" in="SourceAlpha" result="effect2_dropShadow_957_72"/>
<feOffset dy="2.5"/>
<feGaussianBlur stdDeviation="1.66667"/>
<feComposite in2="hardAlpha" operator="out"/>
<feColorMatrix type="matrix" values="0 0 0 0 0.164706 0 0 0 0 0.164706 0 0 0 0 0.164706 0 0 0 0.14 0"/>
<feBlend mode="normal" in2="effect1_dropShadow_957_72" result="effect2_dropShadow_957_72"/>
<feBlend mode="normal" in="SourceGraphic" in2="effect2_dropShadow_957_72" result="shape"/>
<feColorMatrix in="SourceAlpha" type="matrix" values="0 0 0 0 0 0 0 0 0 0 0 0 0 0 0 0 0 0 127 0" result="hardAlpha"/>
<feOffset dy="-2.5"/>
<feGaussianBlur stdDeviation="1.25"/>
<feComposite in2="hardAlpha" operator="arithmetic" k2="-1" k3="1"/>
<feColorMatrix type="matrix" values="0 0 0 0 0 0 0 0 0 0 0 0 0 0 0 0 0 0 0.1 0"/>
<feBlend mode="normal" in2="shape" result="effect3_innerShadow_957_72"/>
<feColorMatrix in="SourceAlpha" type="matrix" values="0 0 0 0 0 0 0 0 0 0 0 0 0 0 0 0 0 0 127 0" result="hardAlpha"/>
<feOffset dy="2.5"/>
<feGaussianBlur stdDeviation="1.25"/>
<feComposite in2="hardAlpha" operator="arithmetic" k2="-1" k3="1"/>
<feColorMatrix type="matrix" values="0 0 0 0 1 0 0 0 0 1 0 0 0 0 1 0 0 0 0.1 0"/>
<feBlend mode="normal" in2="effect3_innerShadow_957_72" result="effect4_innerShadow_957_72"/>
<feColorMatrix in="SourceAlpha" type="matrix" values="0 0 0 0 0 0 0 0 0 0 0 0 0 0 0 0 0 0 127 0" result="hardAlpha"/>
<feMorphology radius="0.833333" operator="erode" in="SourceAlpha" result="effect5_innerShadow_957_72"/>
<feOffset/>
<feComposite in2="hardAlpha" operator="arithmetic" k2="-1" k3="1"/>
<feColorMatrix type="matrix" values="0 0 0 0 0 0 0 0 0 0 0 0 0 0 0 0 0 0 0.2 0"/>
<feBlend mode="normal" in2="effect4_innerShadow_957_72" result="effect5_innerShadow_957_72"/>
</filter>
<filter id="filter1_d_957_72" x="8.125" y="4.375" width="28.75" height="35" filterUnits="userSpaceOnUse" color-interpolation-filters="sRGB">
<feFlood flood-opacity="0" result="BackgroundImageFix"/>
<feColorMatrix in="SourceAlpha" type="matrix" values="0 0 0 0 0 0 0 0 0 0 0 0 0 0 0 0 0 0 127 0" result="hardAlpha"/>
<feMorphology radius="1.25" operator="erode" in="SourceAlpha" result="effect1_dropShadow_957_72"/>
<feOffset dy="1.875"/>
<feGaussianBlur stdDeviation="1.875"/>
<feComposite in2="hardAlpha" operator="out"/>
<feColorMatrix type="matrix" values="0 0 0 0 0.141176 0 0 0 0 0.141176 0 0 0 0 0.141176 0 0 0 0.1 0"/>
<feBlend mode="normal" in2="BackgroundImageFix" result="effect1_dropShadow_957_72"/>
<feBlend mode="normal" in="SourceGraphic" in2="effect1_dropShadow_957_72" result="shape"/>
</filter>
<linearGradient id="paint0_linear_957_72" x1="20" y1="4.96706e-07" x2="21.6667" y2="40" gradientUnits="userSpaceOnUse">
<stop stop-color="white" stop-opacity="0"/>
<stop offset="1" stop-color="white" stop-opacity="0.12"/>
</linearGradient>
<linearGradient id="paint1_linear_957_72" x1="22.5" y1="8.125" x2="22.5" y2="31.875" gradientUnits="userSpaceOnUse">
<stop stop-color="white" stop-opacity="0.8"/>
<stop offset="1" stop-color="white" stop-opacity="0.5"/>
</linearGradient>
<linearGradient id="paint2_linear_957_72" x1="22.5" y1="0" x2="22.5" y2="40" gradientUnits="userSpaceOnUse">
<stop stop-color="white" stop-opacity="0.12"/>
<stop offset="1" stop-color="white" stop-opacity="0"/>
</linearGradient>
<clipPath id="clip0_957_72">
<rect x="2.5" width="40" height="40" rx="10" fill="white"/>
</clipPath>
</defs>
</svg>
