<svg width="154" height="45" viewBox="0 0 154 45" fill="none" xmlns="http://www.w3.org/2000/svg">
<g filter="url(#filter0_ddiii_957_116)">
<g clip-path="url(#clip0_957_116)">
<rect x="2.5" width="40" height="40" rx="10" fill="#EAAA08"/>
<rect width="40" height="40" transform="translate(2.5)" fill="url(#paint0_linear_957_116)"/>
<g filter="url(#filter1_d_957_116)">
<path d="M25.8316 16.6667V10H12.4983V16.6667L25.8316 16.6667Z" fill="url(#paint1_linear_957_116)"/>
<path d="M25.8314 23.3333C22.1495 23.3333 19.1647 26.318 19.1647 29.9999L12.4991 30.0002L12.4991 29.8281C12.5907 22.5721 18.4785 16.7127 25.7456 16.6669L32.4983 16.6672V30.0005H25.8316L25.8314 23.3333Z" fill="url(#paint2_linear_957_116)"/>
</g>
</g>
<rect x="3.33333" y="0.833333" width="38.3333" height="38.3333" rx="9.16667" stroke="url(#paint3_linear_957_116)" stroke-width="1.66667"/>
</g>
<path d="M52.5 27.5002V11.0977H56.73V23.7652H64.1325V27.5002H52.5Z" fill="#0A0D12"/>
<path d="M71.1342 27.7252C69.7692 27.7252 68.6292 27.4702 67.7142 26.9602C66.7992 26.4352 66.1092 25.7002 65.6442 24.7552C65.1942 23.8102 64.9692 22.7152 64.9692 21.4702V21.2227C64.9692 19.9027 65.2167 18.7927 65.7117 17.8927C66.2067 16.9777 66.8892 16.2802 67.7592 15.8002C68.6442 15.3202 69.6567 15.0802 70.7967 15.0802C72.0717 15.0802 73.1517 15.3202 74.0367 15.8002C74.9367 16.2652 75.6192 16.9252 76.0842 17.7802C76.5492 18.6202 76.7817 19.6102 76.7817 20.7502V22.4152H68.9967V22.9777C68.9967 23.4877 69.1842 23.9077 69.5592 24.2377C69.9342 24.5677 70.4142 24.7327 70.9992 24.7327C71.5242 24.7327 71.9517 24.6277 72.2817 24.4177C72.6117 24.1927 72.8067 23.9002 72.8667 23.5402H76.6467C76.6017 24.3652 76.3392 25.0927 75.8592 25.7227C75.3792 26.3527 74.7342 26.8477 73.9242 27.2077C73.1142 27.5527 72.1842 27.7252 71.1342 27.7252ZM68.9967 19.8952V20.0077H72.8667V19.8952C72.8667 19.2502 72.6867 18.7777 72.3267 18.4777C71.9667 18.1627 71.5017 18.0052 70.9317 18.0052C70.3617 18.0052 69.8967 18.1702 69.5367 18.5002C69.1767 18.8152 68.9967 19.2802 68.9967 19.8952Z" fill="#0A0D12"/>
<path d="M82.3158 27.7252C81.2208 27.7252 80.3283 27.4777 79.6383 26.9827C78.9633 26.4877 78.4683 25.7902 78.1533 24.8902C77.8383 23.9752 77.6808 22.9177 77.6808 21.7177V21.1327C77.6808 18.9877 78.1008 17.4502 78.9408 16.5202C79.7808 15.5752 80.9058 15.1027 82.3158 15.1027C83.0808 15.1027 83.7708 15.2677 84.3858 15.5977C85.0158 15.9127 85.4808 16.3777 85.7808 16.9927H85.9608L86.1633 15.3052H89.9208V27.5002H85.9608V25.8352H85.7808C85.4808 26.4352 85.0158 26.9002 84.3858 27.2302C83.7708 27.5602 83.0808 27.7252 82.3158 27.7252ZM83.9358 24.5077C84.5508 24.5077 85.0383 24.3277 85.3983 23.9677C85.7583 23.6077 85.9383 23.0827 85.9383 22.3927V20.4127C85.9383 19.7377 85.7583 19.2202 85.3983 18.8602C85.0383 18.4852 84.5508 18.2977 83.9358 18.2977C83.2908 18.2977 82.7883 18.4852 82.4283 18.8602C82.0833 19.2352 81.9108 19.7527 81.9108 20.4127V22.4377C81.9108 23.0827 82.0833 23.5927 82.4283 23.9677C82.7883 24.3277 83.2908 24.5077 83.9358 24.5077Z" fill="#0A0D12"/>
<path d="M92.255 31.2577V15.3052H96.0125L96.2375 16.9927H96.4175C96.7175 16.3777 97.175 15.9127 97.79 15.5977C98.42 15.2677 99.1175 15.1027 99.8825 15.1027C100.993 15.1027 101.885 15.3502 102.56 15.8452C103.235 16.3402 103.73 17.0452 104.045 17.9602C104.36 18.8602 104.518 19.9177 104.518 21.1327V21.7177C104.518 23.8477 104.098 25.3852 103.258 26.3302C102.418 27.2602 101.293 27.7252 99.8825 27.7252C99.1175 27.7252 98.42 27.5602 97.79 27.2302C97.175 26.9002 96.7175 26.4352 96.4175 25.8352H96.2375V31.2577H92.255ZM98.2625 24.5077C98.9075 24.5077 99.4025 24.3277 99.7475 23.9677C100.108 23.5927 100.288 23.0827 100.288 22.4377V20.4127C100.288 19.7527 100.108 19.2352 99.7475 18.8602C99.4025 18.4852 98.9075 18.2977 98.2625 18.2977C97.6625 18.2977 97.175 18.4852 96.8 18.8602C96.44 19.2202 96.26 19.7377 96.26 20.4127V22.3927C96.26 23.0827 96.44 23.6077 96.8 23.9677C97.175 24.3277 97.6625 24.5077 98.2625 24.5077Z" fill="#0A0D12"/>
<path d="M104.953 31.2577V28.1527H109.183V26.1727L104.39 15.3052H108.53L110.69 21.4702L111.05 22.6402H111.163L111.523 21.4702L113.773 15.3052H117.89L113.143 26.1727V28.8052C113.143 29.6302 112.903 30.2452 112.423 30.6502C111.958 31.0552 111.335 31.2577 110.555 31.2577H104.953Z" fill="#0A0D12"/>
<path d="M123.782 27.7252C122.417 27.7252 121.277 27.4702 120.362 26.9602C119.447 26.4352 118.757 25.7002 118.292 24.7552C117.842 23.8102 117.617 22.7152 117.617 21.4702V21.2227C117.617 19.9027 117.865 18.7927 118.36 17.8927C118.855 16.9777 119.537 16.2802 120.407 15.8002C121.292 15.3202 122.305 15.0802 123.445 15.0802C124.72 15.0802 125.8 15.3202 126.685 15.8002C127.585 16.2652 128.267 16.9252 128.732 17.7802C129.197 18.6202 129.43 19.6102 129.43 20.7502V22.4152H121.645V22.9777C121.645 23.4877 121.832 23.9077 122.207 24.2377C122.582 24.5677 123.062 24.7327 123.647 24.7327C124.172 24.7327 124.6 24.6277 124.93 24.4177C125.26 24.1927 125.455 23.9002 125.515 23.5402H129.295C129.25 24.3652 128.987 25.0927 128.507 25.7227C128.027 26.3527 127.382 26.8477 126.572 27.2077C125.762 27.5527 124.832 27.7252 123.782 27.7252ZM121.645 19.8952V20.0077H125.515V19.8952C125.515 19.2502 125.335 18.7777 124.975 18.4777C124.615 18.1627 124.15 18.0052 123.58 18.0052C123.01 18.0052 122.545 18.1702 122.185 18.5002C121.825 18.8152 121.645 19.2802 121.645 19.8952Z" fill="#0A0D12"/>
<path d="M134.964 27.7252C133.869 27.7252 132.977 27.4777 132.287 26.9827C131.612 26.4877 131.117 25.7902 130.802 24.8902C130.487 23.9752 130.329 22.9177 130.329 21.7177V21.1327C130.329 18.9877 130.749 17.4502 131.589 16.5202C132.429 15.5752 133.554 15.1027 134.964 15.1027C135.729 15.1027 136.419 15.2677 137.034 15.5977C137.664 15.9127 138.129 16.3777 138.429 16.9927H138.609L138.812 15.3052H142.569V27.5002H138.609V25.8352H138.429C138.129 26.4352 137.664 26.9002 137.034 27.2302C136.419 27.5602 135.729 27.7252 134.964 27.7252ZM136.584 24.5077C137.199 24.5077 137.687 24.3277 138.047 23.9677C138.407 23.6077 138.587 23.0827 138.587 22.3927V20.4127C138.587 19.7377 138.407 19.2202 138.047 18.8602C137.687 18.4852 137.199 18.2977 136.584 18.2977C135.939 18.2977 135.437 18.4852 135.077 18.8602C134.732 19.2352 134.559 19.7527 134.559 20.4127V22.4377C134.559 23.0827 134.732 23.5927 135.077 23.9677C135.437 24.3277 135.939 24.5077 136.584 24.5077Z" fill="#0A0D12"/>
<path d="M144.903 27.5002V18.2977C144.903 17.3977 145.173 16.6777 145.713 16.1377C146.268 15.5827 146.988 15.3052 147.873 15.3052H152.823V18.5002H148.886V27.5002H144.903Z" fill="#0A0D12"/>
<defs>
<filter id="filter0_ddiii_957_116" x="5.96046e-08" y="-2.5" width="45" height="47.5" filterUnits="userSpaceOnUse" color-interpolation-filters="sRGB">
<feFlood flood-opacity="0" result="BackgroundImageFix"/>
<feColorMatrix in="SourceAlpha" type="matrix" values="0 0 0 0 0 0 0 0 0 0 0 0 0 0 0 0 0 0 127 0" result="hardAlpha"/>
<feOffset dy="0.833333"/>
<feGaussianBlur stdDeviation="0.416667"/>
<feComposite in2="hardAlpha" operator="out"/>
<feColorMatrix type="matrix" values="0 0 0 0 0.162923 0 0 0 0 0.162923 0 0 0 0 0.162923 0 0 0 0.08 0"/>
<feBlend mode="normal" in2="BackgroundImageFix" result="effect1_dropShadow_957_116"/>
<feColorMatrix in="SourceAlpha" type="matrix" values="0 0 0 0 0 0 0 0 0 0 0 0 0 0 0 0 0 0 127 0" result="hardAlpha"/>
<feMorphology radius="0.833333" operator="erode" in="SourceAlpha" result="effect2_dropShadow_957_116"/>
<feOffset dy="2.5"/>
<feGaussianBlur stdDeviation="1.66667"/>
<feComposite in2="hardAlpha" operator="out"/>
<feColorMatrix type="matrix" values="0 0 0 0 0.164706 0 0 0 0 0.164706 0 0 0 0 0.164706 0 0 0 0.14 0"/>
<feBlend mode="normal" in2="effect1_dropShadow_957_116" result="effect2_dropShadow_957_116"/>
<feBlend mode="normal" in="SourceGraphic" in2="effect2_dropShadow_957_116" result="shape"/>
<feColorMatrix in="SourceAlpha" type="matrix" values="0 0 0 0 0 0 0 0 0 0 0 0 0 0 0 0 0 0 127 0" result="hardAlpha"/>
<feOffset dy="-2.5"/>
<feGaussianBlur stdDeviation="1.25"/>
<feComposite in2="hardAlpha" operator="arithmetic" k2="-1" k3="1"/>
<feColorMatrix type="matrix" values="0 0 0 0 0 0 0 0 0 0 0 0 0 0 0 0 0 0 0.1 0"/>
<feBlend mode="normal" in2="shape" result="effect3_innerShadow_957_116"/>
<feColorMatrix in="SourceAlpha" type="matrix" values="0 0 0 0 0 0 0 0 0 0 0 0 0 0 0 0 0 0 127 0" result="hardAlpha"/>
<feOffset dy="2.5"/>
<feGaussianBlur stdDeviation="1.25"/>
<feComposite in2="hardAlpha" operator="arithmetic" k2="-1" k3="1"/>
<feColorMatrix type="matrix" values="0 0 0 0 1 0 0 0 0 1 0 0 0 0 1 0 0 0 0.1 0"/>
<feBlend mode="normal" in2="effect3_innerShadow_957_116" result="effect4_innerShadow_957_116"/>
<feColorMatrix in="SourceAlpha" type="matrix" values="0 0 0 0 0 0 0 0 0 0 0 0 0 0 0 0 0 0 127 0" result="hardAlpha"/>
<feMorphology radius="0.833333" operator="erode" in="SourceAlpha" result="effect5_innerShadow_957_116"/>
<feOffset/>
<feComposite in2="hardAlpha" operator="arithmetic" k2="-1" k3="1"/>
<feColorMatrix type="matrix" values="0 0 0 0 0 0 0 0 0 0 0 0 0 0 0 0 0 0 0.2 0"/>
<feBlend mode="normal" in2="effect4_innerShadow_957_116" result="effect5_innerShadow_957_116"/>
</filter>
<filter id="filter1_d_957_116" x="9.99829" y="4.375" width="25.0017" height="35" filterUnits="userSpaceOnUse" color-interpolation-filters="sRGB">
<feFlood flood-opacity="0" result="BackgroundImageFix"/>
<feColorMatrix in="SourceAlpha" type="matrix" values="0 0 0 0 0 0 0 0 0 0 0 0 0 0 0 0 0 0 127 0" result="hardAlpha"/>
<feMorphology radius="1.25" operator="erode" in="SourceAlpha" result="effect1_dropShadow_957_116"/>
<feOffset dy="1.875"/>
<feGaussianBlur stdDeviation="1.875"/>
<feComposite in2="hardAlpha" operator="out"/>
<feColorMatrix type="matrix" values="0 0 0 0 0.141176 0 0 0 0 0.141176 0 0 0 0 0.141176 0 0 0 0.1 0"/>
<feBlend mode="normal" in2="BackgroundImageFix" result="effect1_dropShadow_957_116"/>
<feBlend mode="normal" in="SourceGraphic" in2="effect1_dropShadow_957_116" result="shape"/>
</filter>
<linearGradient id="paint0_linear_957_116" x1="20" y1="4.96706e-07" x2="21.6667" y2="40" gradientUnits="userSpaceOnUse">
<stop stop-color="white" stop-opacity="0"/>
<stop offset="1" stop-color="white" stop-opacity="0.12"/>
</linearGradient>
<linearGradient id="paint1_linear_957_116" x1="22.4983" y1="10" x2="22.4983" y2="30.0005" gradientUnits="userSpaceOnUse">
<stop stop-color="white" stop-opacity="0.8"/>
<stop offset="1" stop-color="white" stop-opacity="0.5"/>
</linearGradient>
<linearGradient id="paint2_linear_957_116" x1="22.4983" y1="10" x2="22.4983" y2="30.0005" gradientUnits="userSpaceOnUse">
<stop stop-color="white" stop-opacity="0.8"/>
<stop offset="1" stop-color="white" stop-opacity="0.5"/>
</linearGradient>
<linearGradient id="paint3_linear_957_116" x1="22.5" y1="0" x2="22.5" y2="40" gradientUnits="userSpaceOnUse">
<stop stop-color="white" stop-opacity="0.12"/>
<stop offset="1" stop-color="white" stop-opacity="0"/>
</linearGradient>
<clipPath id="clip0_957_116">
<rect x="2.5" width="40" height="40" rx="10" fill="white"/>
</clipPath>
</defs>
</svg>
