<svg width="181" height="102" viewBox="0 0 181 102" fill="none" xmlns="http://www.w3.org/2000/svg">
<g filter="url(#filter0_d_499_6022)">
<path d="M24.2002 36.2C24.2002 22.9452 34.9454 12.2 48.2002 12.2H152.2C154.409 12.2 156.2 13.9909 156.2 16.2V41.2C156.2 54.4548 145.455 65.2 132.2 65.2H28.2002C25.9911 65.2 24.2002 63.4091 24.2002 61.2V36.2Z" fill="white" fill-opacity="0.2" shape-rendering="crispEdges"/>
<path d="M48.2002 12.7H152.2C154.133 12.7 155.7 14.267 155.7 16.2V41.2C155.7 54.1787 145.179 64.7 132.2 64.7H28.2002C26.2672 64.7 24.7002 63.133 24.7002 61.2V36.2C24.7002 23.2213 35.2215 12.7 48.2002 12.7Z" stroke="white" stroke-opacity="0.2" shape-rendering="crispEdges"/>
<path d="M132.846 45.6145V32.0672H136.995V45.6145H132.846ZM134.921 30.8124C134.289 30.8124 133.751 30.5905 133.307 30.1466C132.864 29.7027 132.642 29.1649 132.642 28.5332C132.642 27.9015 132.864 27.3637 133.307 26.9198C133.751 26.4759 134.289 26.254 134.921 26.254C135.553 26.254 136.09 26.4759 136.534 26.9198C136.978 27.3637 137.2 27.9015 137.2 28.5332C137.2 29.1649 136.978 29.7027 136.534 30.1466C136.09 30.5905 135.553 30.8124 134.921 30.8124Z" fill="white"/>
<path d="M116.241 50.8387V32.0672H120.339V33.066C121.414 32.2807 122.626 31.888 123.975 31.888C125.273 31.888 126.442 32.2038 127.484 32.8355C128.525 33.4501 129.353 34.2867 129.968 35.3452C130.582 36.3866 130.89 37.5561 130.89 38.8537C130.89 40.1512 130.574 41.3292 129.942 42.3877C129.327 43.4292 128.482 44.2572 127.407 44.8718C126.348 45.4864 125.162 45.7937 123.847 45.7937C123.215 45.7937 122.609 45.7169 122.029 45.5632C121.448 45.4096 120.902 45.1876 120.39 44.8974V50.8387H116.241ZM123.258 42.2853C123.941 42.2853 124.547 42.1402 125.076 41.8499C125.606 41.5426 126.024 41.1329 126.331 40.6207C126.656 40.0914 126.818 39.5024 126.818 38.8537C126.818 38.2049 126.656 37.6244 126.331 37.1122C126.024 36.583 125.597 36.1732 125.051 35.883C124.521 35.5757 123.924 35.422 123.258 35.422C122.678 35.422 122.148 35.5159 121.67 35.7037C121.192 35.8745 120.765 36.1391 120.39 36.4976V41.2353C120.748 41.5597 121.175 41.8158 121.67 42.0036C122.165 42.1914 122.695 42.2853 123.258 42.2853Z" fill="white"/>
<path d="M105.938 45.8449C104.982 45.8449 104.129 45.6657 103.378 45.3072C102.643 44.9486 102.063 44.4535 101.636 43.8218C101.226 43.1901 101.021 42.4645 101.021 41.6451C101.021 40.3475 101.508 39.3488 102.481 38.6488C103.471 37.9317 104.846 37.5732 106.604 37.5732C107.663 37.5732 108.687 37.7013 109.677 37.9573V37.2915C109.677 36.6086 109.455 36.1049 109.012 35.7806C108.585 35.4391 107.944 35.2684 107.091 35.2684C106.562 35.2684 105.964 35.3537 105.298 35.5245C104.649 35.6952 103.881 35.9684 102.993 36.344L101.508 33.2965C102.618 32.8014 103.685 32.4343 104.709 32.1953C105.751 31.9392 106.792 31.8112 107.834 31.8112C109.712 31.8112 111.171 32.2636 112.213 33.1684C113.254 34.0562 113.775 35.3111 113.775 36.933V45.6145H109.677V44.795C109.131 45.1706 108.551 45.4437 107.936 45.6145C107.338 45.7681 106.673 45.8449 105.938 45.8449ZM104.965 41.5682C104.965 41.995 105.153 42.328 105.529 42.567C105.904 42.806 106.425 42.9255 107.091 42.9255C107.586 42.9255 108.047 42.8743 108.474 42.7719C108.918 42.6694 109.319 42.5072 109.677 42.2853V40.5439C109.285 40.4414 108.883 40.3646 108.474 40.3134C108.064 40.2622 107.646 40.2366 107.219 40.2366C106.502 40.2366 105.947 40.3561 105.554 40.5951C105.162 40.817 104.965 41.1414 104.965 41.5682Z" fill="white"/>
<path d="M88.0686 51.146C87.7442 51.146 87.4284 51.129 87.121 51.0948C86.8137 51.0777 86.5576 51.0436 86.3528 50.9924V47.4583C86.6942 47.5266 87.121 47.5608 87.6332 47.5608C88.9649 47.5608 89.8612 46.9803 90.3222 45.8193V45.7937L85.1235 32.0672H89.7076L92.7038 40.5951L96.1867 32.0672H100.668L94.5989 46.3059C94.1038 47.4839 93.5575 48.4229 92.9599 49.1229C92.3624 49.84 91.6709 50.3521 90.8856 50.6595C90.1002 50.9838 89.1612 51.146 88.0686 51.146Z" fill="white"/>
<path d="M79.0278 45.8706C77.7473 45.8706 76.5608 45.7254 75.4681 45.4352C74.3754 45.1279 73.4279 44.684 72.6255 44.1035L74.5974 41.3121C75.451 41.8243 76.2278 42.1999 76.9278 42.4389C77.6278 42.6609 78.3192 42.7719 79.0022 42.7719C79.6851 42.7719 80.2229 42.678 80.6155 42.4902C81.0253 42.2853 81.2301 42.0207 81.2301 41.6963C81.2301 41.4402 81.1192 41.2353 80.8972 41.0817C80.6753 40.9109 80.3253 40.7914 79.8473 40.7231L77.1583 40.3134C75.8096 40.1085 74.7767 39.6646 74.0596 38.9817C73.3596 38.2817 73.0096 37.3769 73.0096 36.2671C73.0096 35.3452 73.2401 34.5599 73.7011 33.9111C74.1791 33.2453 74.8535 32.7416 75.7242 32.4002C76.5949 32.0416 77.6363 31.8624 78.8485 31.8624C79.8387 31.8624 80.8204 31.999 81.7935 32.2721C82.7667 32.5453 83.6715 32.955 84.5081 33.5014L82.5362 36.1647C81.8021 35.7379 81.1021 35.4306 80.4363 35.2428C79.7704 35.0379 79.1046 34.9355 78.4388 34.9355C77.9095 34.9355 77.4827 35.0294 77.1583 35.2172C76.8339 35.3879 76.6717 35.6184 76.6717 35.9086C76.6717 36.1818 76.7912 36.4037 77.0303 36.5745C77.2693 36.7281 77.679 36.8476 78.2595 36.933L80.9484 37.3427C82.2801 37.5305 83.3045 37.9744 84.0215 38.6744C84.7557 39.3573 85.1227 40.228 85.1227 41.2865C85.1227 42.1743 84.8581 42.9597 84.3288 43.6426C83.7996 44.3255 83.074 44.8718 82.1521 45.2815C81.2472 45.6742 80.2058 45.8706 79.0278 45.8706Z" fill="white"/>
<path d="M63.3735 45.8449C62.4174 45.8449 61.5638 45.6657 60.8126 45.3072C60.0785 44.9486 59.498 44.4535 59.0712 43.8218C58.6614 43.1901 58.4565 42.4645 58.4565 41.6451C58.4565 40.3475 58.9431 39.3488 59.9163 38.6488C60.9065 37.9317 62.2808 37.5732 64.0393 37.5732C65.0978 37.5732 66.1222 37.7013 67.1124 37.9573V37.2915C67.1124 36.6086 66.8905 36.1049 66.4466 35.7806C66.0198 35.4391 65.3795 35.2684 64.5259 35.2684C63.9966 35.2684 63.3991 35.3537 62.7333 35.5245C62.0845 35.6952 61.3162 35.9684 60.4284 36.344L58.9431 33.2965C60.0528 32.8014 61.1199 32.4343 62.1443 32.1953C63.1857 31.9392 64.2271 31.8112 65.2686 31.8112C67.1466 31.8112 68.6063 32.2636 69.6477 33.1684C70.6892 34.0562 71.2099 35.3111 71.2099 36.933V45.6145H67.1124V44.795C66.5661 45.1706 65.9856 45.4437 65.371 45.6145C64.7735 45.7681 64.1076 45.8449 63.3735 45.8449ZM62.4003 41.5682C62.4003 41.995 62.5881 42.328 62.9637 42.567C63.3393 42.806 63.8601 42.9255 64.5259 42.9255C65.021 42.9255 65.482 42.8743 65.9088 42.7719C66.3527 42.6694 66.7539 42.5072 67.1124 42.2853V40.5439C66.7197 40.4414 66.3185 40.3646 65.9088 40.3134C65.499 40.2622 65.0808 40.2366 64.6539 40.2366C63.9369 40.2366 63.382 40.3561 62.9894 40.5951C62.5967 40.817 62.4003 41.1414 62.4003 41.5682Z" fill="white"/>
<path d="M50.5761 45.8705C49.1932 45.8705 47.9384 45.5632 46.8116 44.9486C45.7018 44.3169 44.8226 43.4718 44.1738 42.4133C43.5251 41.3548 43.2007 40.1683 43.2007 38.8537C43.2007 37.5391 43.508 36.3525 44.1226 35.294C44.7543 34.2355 45.6079 33.3989 46.6835 32.7843C47.7591 32.1526 48.9542 31.8368 50.2688 31.8368C51.6005 31.8368 52.7785 32.1611 53.8029 32.8099C54.8272 33.4416 55.6296 34.3123 56.2101 35.422C56.8076 36.5318 57.1064 37.8037 57.1064 39.2378V40.2622H47.4518C47.6396 40.689 47.8871 41.0646 48.1945 41.389C48.5188 41.7133 48.903 41.9694 49.3469 42.1572C49.7908 42.328 50.2688 42.4133 50.781 42.4133C51.3444 42.4133 51.8566 42.328 52.3175 42.1572C52.7785 41.9694 53.1712 41.7133 53.4955 41.389L56.2357 43.8218C55.3821 44.5389 54.5028 45.0596 53.598 45.384C52.7102 45.7084 51.7029 45.8705 50.5761 45.8705ZM47.375 37.3683H53.0346C52.898 36.9244 52.6846 36.5488 52.3944 36.2415C52.1212 35.9171 51.7968 35.6696 51.4212 35.4989C51.0456 35.3111 50.6359 35.2172 50.192 35.2172C49.731 35.2172 49.3127 35.3025 48.9371 35.4733C48.5615 35.644 48.2371 35.8915 47.964 36.2159C47.7079 36.5232 47.5115 36.9074 47.375 37.3683Z" fill="white"/>
</g>
<defs>
<filter id="filter0_d_499_6022" x="0.00019455" y="-3.8147e-06" width="180.4" height="101.4" filterUnits="userSpaceOnUse" color-interpolation-filters="sRGB">
<feFlood flood-opacity="0" result="BackgroundImageFix"/>
<feColorMatrix in="SourceAlpha" type="matrix" values="0 0 0 0 0 0 0 0 0 0 0 0 0 0 0 0 0 0 127 0" result="hardAlpha"/>
<feOffset dy="12"/>
<feGaussianBlur stdDeviation="12.1"/>
<feComposite in2="hardAlpha" operator="out"/>
<feColorMatrix type="matrix" values="0 0 0 0 0 0 0 0 0 0 0 0 0 0 0 0 0 0 0.11 0"/>
<feBlend mode="normal" in2="BackgroundImageFix" result="effect1_dropShadow_499_6022"/>
<feBlend mode="normal" in="SourceGraphic" in2="effect1_dropShadow_499_6022" result="shape"/>
</filter>
</defs>
</svg>
