<svg width="224" height="243" viewBox="0 0 224 243" fill="none" xmlns="http://www.w3.org/2000/svg">
<circle cx="112" cy="130.577" r="111.5" stroke="#2750F5" stroke-opacity="0.5" stroke-dasharray="4 4"/>
<circle cx="112" cy="130.577" r="64.5" stroke="#2750F5" stroke-opacity="0.5" stroke-dasharray="4 4"/>
<path d="M141.486 65.3621L129.801 72.1492L118.04 65.3621L129.725 58.5771L141.486 65.3621Z" fill="#EFEEFF" stroke="white" stroke-miterlimit="10"/>
<path d="M141.486 65.3623L141.447 79.1464L129.762 85.9335L129.801 72.1494L141.486 65.3623Z" fill="#B5B5FF" stroke="white" stroke-miterlimit="10"/>
<path d="M129.801 72.1494L129.762 85.9335L118 79.1464L118.039 65.3623L129.801 72.1494Z" fill="#B5B5FF" stroke="white" stroke-miterlimit="10"/>
<path d="M97.4861 18.0511L67.3924 35.5306L37.1016 18.0511L67.1953 0.577148L97.4861 18.0511Z" fill="#EFEEFF" stroke="white" stroke-miterlimit="10"/>
<path d="M97.4861 18.0508L97.3847 53.5502L67.291 71.0297L67.3924 35.5303L97.4861 18.0508Z" fill="#B5B5FF" stroke="white" stroke-miterlimit="10"/>
<path d="M67.3922 35.5303L67.2908 71.0297L37 53.5502L37.1014 18.0508L67.3922 35.5303Z" fill="#B5B5FF" stroke="white" stroke-miterlimit="10"/>
</svg>
