<svg width="22" height="22" viewBox="0 0 22 22" fill="none" xmlns="http://www.w3.org/2000/svg">
<path d="M14 18H5C3.89543 18 3 17.1046 3 16V10M19 13V7C19 5.89543 18.1046 5 17 5H8.5" stroke="#2750F5" stroke-width="2"/>
<rect x="2" y="4" width="4" height="4" rx="1" fill="#FFB73A"/>
<rect x="16" y="15" width="4" height="4" rx="1" fill="#FFB73A"/>
<path fill-rule="evenodd" clip-rule="evenodd" d="M11.3593 8C11.5197 8.00005 11.677 8.04637 11.8114 8.13379C11.946 8.22128 12.052 8.34648 12.1171 8.49316L12.3378 8.98535C12.4154 9.16092 12.5469 9.30781 12.7128 9.4043C12.8796 9.50051 13.0731 9.5416 13.2646 9.52148L13.8007 9.46484C13.9603 9.44799 14.1216 9.47795 14.2646 9.55078C14.4074 9.62363 14.5262 9.73609 14.6064 9.875C14.6867 10.014 14.7251 10.1737 14.7167 10.334C14.7082 10.4941 14.6529 10.6487 14.5585 10.7783L14.2411 11.2139C14.1279 11.3696 14.0673 11.5575 14.0673 11.75C14.0663 11.9431 14.1271 12.1316 14.2402 12.2881L14.5575 12.7246C14.6518 12.8543 14.7063 13.0089 14.7148 13.1689C14.7231 13.3291 14.6847 13.4881 14.6044 13.627C14.5242 13.766 14.4056 13.8793 14.2626 13.9521C14.1196 14.0249 13.9583 14.054 13.7987 14.0371L13.2626 13.9805C13.0712 13.9604 12.8786 14.0016 12.7118 14.0977C12.5461 14.1936 12.4149 14.3397 12.3368 14.5146L12.1171 15.0068C12.052 15.1535 11.946 15.2787 11.8114 15.3662C11.677 15.4536 11.5197 15.4999 11.3593 15.5C11.1988 15.5 11.0408 15.4537 10.9062 15.3662C10.7717 15.2787 10.6656 15.1535 10.6005 15.0068L10.3818 14.5146C10.3037 14.3388 10.1714 14.1919 10.0048 14.0957C9.83801 13.9995 9.64455 13.9584 9.45304 13.9785L8.91691 14.0352C8.75739 14.0519 8.59598 14.022 8.45304 13.9492C8.31026 13.8764 8.19145 13.7638 8.11125 13.625C8.03095 13.4861 7.99247 13.3263 8.0009 13.166C8.00941 13.0059 8.06474 12.8513 8.1591 12.7217L8.47648 12.2861C8.58971 12.1304 8.65034 11.9425 8.65031 11.75C8.65034 11.5575 8.58971 11.3696 8.47648 11.2139L8.1591 10.7783C8.06474 10.6487 8.00941 10.4941 8.0009 10.334C7.99247 10.1737 8.03095 10.0139 8.11125 9.875C8.19137 9.73613 8.31024 9.62364 8.45304 9.55078C8.596 9.47797 8.75737 9.44802 8.91691 9.46484L9.455 9.52148C9.6465 9.5416 9.83996 9.50051 10.0068 9.4043C10.1726 9.30781 10.3042 9.16088 10.3818 8.98535L10.6005 8.49316C10.6656 8.34651 10.7717 8.22128 10.9062 8.13379C11.0408 8.0463 11.1988 7.99997 11.3593 8ZM11.3583 10.625C10.737 10.625 10.2333 11.1287 10.2333 11.75C10.2333 12.3713 10.737 12.875 11.3583 12.875C11.9796 12.875 12.4833 12.3713 12.4833 11.75C12.4833 11.1287 11.9796 10.625 11.3583 10.625Z" fill="#2750F5"/>
</svg>
