<svg width="22" height="22" viewBox="0 0 22 22" fill="none" xmlns="http://www.w3.org/2000/svg">
<path d="M4.33325 7.66666L9.77653 11.477C10.2173 11.7855 10.4377 11.9398 10.6774 11.9995C10.8892 12.0523 11.1107 12.0523 11.3224 11.9995C11.5621 11.9398 11.7825 11.7855 12.2233 11.477L17.6666 7.66666M7.53325 16.3333H14.4666C15.5867 16.3333 16.1467 16.3333 16.5746 16.1153C16.9509 15.9236 17.2569 15.6176 17.4486 15.2413C17.6666 14.8135 17.6666 14.2534 17.6666 13.1333V8.86666C17.6666 7.74655 17.6666 7.1865 17.4486 6.75868C17.2569 6.38235 16.9509 6.07639 16.5746 5.88464C16.1467 5.66666 15.5867 5.66666 14.4666 5.66666H7.53325C6.41315 5.66666 5.85309 5.66666 5.42527 5.88464C5.04895 6.07639 4.74299 6.38235 4.55124 6.75868C4.33325 7.1865 4.33325 7.74655 4.33325 8.86666V13.1333C4.33325 14.2534 4.33325 14.8135 4.55124 15.2413C4.74299 15.6176 5.04895 15.9236 5.42527 16.1153C5.85309 16.3333 6.41315 16.3333 7.53325 16.3333Z" stroke="#2750F5" stroke-width="1.5" stroke-linecap="round" stroke-linejoin="round"/>
</svg>
