<svg width="22" height="22" viewBox="0 0 22 22" fill="none" xmlns="http://www.w3.org/2000/svg">
<g clip-path="url(#clip0_1128_8551)">
<path d="M5.6666 17.545C6.06832 17.6667 6.61091 17.6667 7.53325 17.6667H14.4666C15.3889 17.6667 15.9315 17.6667 16.3332 17.545M5.6666 17.545C5.58047 17.5189 5.50081 17.4872 5.42527 17.4487C5.04895 17.2569 4.74299 16.951 4.55124 16.5747C4.33325 16.1468 4.33325 15.5868 4.33325 14.4667V7.53334C4.33325 6.41324 4.33325 5.85319 4.55124 5.42536C4.74299 5.04904 5.04895 4.74308 5.42527 4.55133C5.85309 4.33334 6.41315 4.33334 7.53325 4.33334H14.4666C15.5867 4.33334 16.1467 4.33334 16.5746 4.55133C16.9509 4.74308 17.2569 5.04904 17.4486 5.42536C17.6666 5.85319 17.6666 6.41324 17.6666 7.53334V14.4667C17.6666 15.5868 17.6666 16.1468 17.4486 16.5747C17.2569 16.951 16.9509 17.2569 16.5746 17.4487C16.499 17.4872 16.4194 17.5189 16.3332 17.545M5.6666 17.545C5.66682 17.0054 5.67006 16.7199 5.71782 16.4798C5.92824 15.4219 6.75517 14.595 7.81301 14.3846C8.07061 14.3333 8.38038 14.3333 8.99992 14.3333H12.9999C13.6195 14.3333 13.9292 14.3333 14.1868 14.3846C15.2447 14.595 16.0716 15.4219 16.282 16.4798C16.3298 16.7199 16.333 17.0054 16.3332 17.545M13.6666 9.33334C13.6666 10.8061 12.4727 12 10.9999 12C9.52716 12 8.33325 10.8061 8.33325 9.33334C8.33325 7.86058 9.52716 6.66668 10.9999 6.66668C12.4727 6.66668 13.6666 7.86058 13.6666 9.33334Z" stroke="#2750F5" stroke-width="1.5" stroke-linecap="round" stroke-linejoin="round"/>
</g>
<defs>
<clipPath id="clip0_1128_8551">
<rect width="16" height="16" fill="white" transform="translate(3 3)"/>
</clipPath>
</defs>
</svg>
