<svg width="22" height="22" viewBox="0 0 22 22" fill="none" xmlns="http://www.w3.org/2000/svg">
<path d="M10.9999 17L10.9332 16.8999C10.4701 16.2053 10.2386 15.858 9.93265 15.6065C9.66182 15.3839 9.34976 15.2169 9.01432 15.1151C8.63542 15 8.21799 15 7.38313 15H6.46659C5.71985 15 5.34648 15 5.06126 14.8547C4.81038 14.7268 4.60641 14.5229 4.47858 14.272C4.33325 13.9868 4.33325 13.6134 4.33325 12.8667V7.13333C4.33325 6.3866 4.33325 6.01323 4.47858 5.72801C4.60641 5.47713 4.81038 5.27316 5.06126 5.14532C5.34648 5 5.71985 5 6.46659 5H6.73325C8.22673 5 8.97346 5 9.54389 5.29065C10.0457 5.54631 10.4536 5.95426 10.7093 6.45603C10.9999 7.02646 10.9999 7.77319 10.9999 9.26667M10.9999 17V9.26667M10.9999 17L11.0666 16.8999C11.5297 16.2053 11.7613 15.858 12.0672 15.6065C12.338 15.3839 12.6501 15.2169 12.9855 15.1151C13.3644 15 13.7818 15 14.6167 15H15.5333C16.28 15 16.6534 15 16.9386 14.8547C17.1895 14.7268 17.3934 14.5229 17.5213 14.272C17.6666 13.9868 17.6666 13.6134 17.6666 12.8667V7.13333C17.6666 6.3866 17.6666 6.01323 17.5213 5.72801C17.3934 5.47713 17.1895 5.27316 16.9386 5.14532C16.6534 5 16.28 5 15.5333 5H15.2666C13.7731 5 13.0264 5 12.4559 5.29065C11.9542 5.54631 11.5462 5.95426 11.2906 6.45603C10.9999 7.02646 10.9999 7.77319 10.9999 9.26667" stroke="#2750F5" stroke-width="1.5" stroke-linecap="round" stroke-linejoin="round"/>
</svg>
