<svg width="96" height="96" viewBox="0 0 96 96" fill="none" xmlns="http://www.w3.org/2000/svg">
<path d="M0 48C0 21.4903 21.4903 0 48 0C74.5097 0 96 21.4903 96 48C96 74.5097 74.5097 96 48 96C21.4903 96 0 74.5097 0 48Z" fill="#2750F5"/>
<path d="M47.9996 42.4999V49.8333M47.9996 57.1666H48.018M45.461 33.1348L30.3821 59.1802C29.5457 60.6249 29.1275 61.3472 29.1893 61.94C29.2432 62.4571 29.5142 62.927 29.9346 63.2327C30.4167 63.5833 31.2514 63.5833 32.9207 63.5833H63.0786C64.7479 63.5833 65.5825 63.5833 66.0646 63.2327C66.4851 62.927 66.756 62.4571 66.8099 61.94C66.8717 61.3472 66.4535 60.6249 65.6172 59.1802L50.5382 33.1348C49.7048 31.6953 49.2882 30.9756 48.7445 30.7338C48.2703 30.523 47.729 30.523 47.2548 30.7338C46.7111 30.9756 46.2944 31.6953 45.461 33.1348Z" stroke="white" stroke-width="4" stroke-linecap="round" stroke-linejoin="round"/>
</svg>
