<svg width="96" height="96" viewBox="0 0 96 96" fill="none" xmlns="http://www.w3.org/2000/svg">
<path d="M0 48C0 21.4903 21.4903 0 48 0C74.5097 0 96 21.4903 96 48C96 74.5097 74.5097 96 48 96C21.4903 96 0 74.5097 0 48Z" fill="#2750F5"/>
<path d="M63.5833 39.3425L47.9999 47.9999M47.9999 47.9999L32.4166 39.3425M47.9999 47.9999L48 65.4166M64.5 55.4406V40.5593C64.5 39.9311 64.5 39.617 64.4074 39.3369C64.3256 39.089 64.1917 38.8616 64.0148 38.6696C63.8149 38.4527 63.5404 38.3001 62.9912 37.9951L49.4246 30.458C48.9046 30.1692 48.6446 30.0248 48.3693 29.9681C48.1257 29.918 47.8743 29.918 47.6307 29.9681C47.3554 30.0248 47.0954 30.1692 46.5754 30.458L33.0088 37.9951C32.4597 38.3001 32.1851 38.4527 31.9852 38.6696C31.8083 38.8616 31.6744 39.089 31.5926 39.3369C31.5 39.617 31.5 39.9311 31.5 40.5593V55.4406C31.5 56.0688 31.5 56.3829 31.5926 56.663C31.6744 56.9109 31.8083 57.1383 31.9852 57.3303C32.1851 57.5472 32.4597 57.6998 33.0088 58.0048L46.5755 65.5419C47.0954 65.8307 47.3554 65.9751 47.6307 66.0318C47.8743 66.0819 48.1257 66.0819 48.3693 66.0318C48.6446 65.9751 48.9046 65.8307 49.4246 65.5419L62.9912 58.0048C63.5404 57.6998 63.8149 57.5472 64.0148 57.3303C64.1917 57.1383 64.3256 56.9109 64.4074 56.663C64.5 56.3829 64.5 56.0688 64.5 55.4406Z" stroke="white" stroke-width="4" stroke-linecap="round" stroke-linejoin="round"/>
</svg>
